<?xml version="1.0" encoding="utf-8"?>
<!-- Generator: Adobe Illustrator 27.5.0, SVG Export Plug-In . SVG Version: 6.00 Build 0)  -->
<svg version="1.1" xmlns="http://www.w3.org/2000/svg" xmlns:xlink="http://www.w3.org/1999/xlink" x="0px" y="0px"
	 viewBox="0 0 750 500" style="enable-background:new 0 0 750 500;" xml:space="preserve">
<g id="BACKGROUND">
	<rect style="fill:#1A206A;" width="750" height="500"/>
</g>
<g id="OBJECTS">
	<g>
		<defs>
			<rect id="SVGID_1_" y="-0.002" width="750" height="500.002"/>
		</defs>
		<clipPath id="SVGID_00000079472002085312229350000016688545646477880236_">
			<use xlink:href="#SVGID_1_"  style="overflow:visible;"/>
		</clipPath>
		<g style="clip-path:url(#SVGID_00000079472002085312229350000016688545646477880236_);">
			<g>
				<polygon style="fill:none;stroke:#7EBEEA;stroke-width:5;stroke-miterlimit:10;" points="-2.374,252.38 102.138,224.729 
					25.935,148.045 				"/>
				<polygon style="fill:none;stroke:#FCFFFF;stroke-width:5;stroke-miterlimit:10;" points="-23.99,274.898 133.483,233.233 
					18.664,117.689 				"/>
			</g>
			<g>
				<polygon style="fill:#23327A;" points="196,500 0,304 0,500 				"/>
				<polygon style="fill:#1E2870;" points="331.476,0 836.002,500 500.002,500 0,-0.002 				"/>
				<polygon style="fill:#23327A;" points="331.476,0 750,414.769 750,0 				"/>
				<circle style="fill:#1E2870;" cx="690" cy="60" r="131"/>
			</g>
			<g>
				<polygon style="fill:none;stroke:#FF8B6E;stroke-width:5;stroke-miterlimit:10;" points="627,125.833 666.084,-28.455 
					780.16,82.536 				"/>
				<polygon style="fill:none;stroke:#FFFFFF;stroke-width:5;stroke-miterlimit:10;" points="647.647,105.471 674.885,-2.053 
					754.385,75.298 				"/>
			</g>
			<g>
				<polygon style="fill:none;stroke:#7EBEEA;stroke-width:5;stroke-miterlimit:10;" points="336.39,1.335 386.562,51.673 
					405.071,-16.946 				"/>
				<polygon style="fill:none;stroke:#7EBEEA;stroke-width:5;stroke-miterlimit:10;" points="316.457,-3.541 392.054,72.307 
					419.942,-31.086 				"/>
			</g>
			<g>
				<defs>
					<rect id="SVGID_00000110454219325357196570000003512361836201463728_" x="627" y="296.5" width="103" height="183.5"/>
				</defs>
				<clipPath id="SVGID_00000011027350166471001840000010334050809234228355_">
					<use xlink:href="#SVGID_00000110454219325357196570000003512361836201463728_"  style="overflow:visible;"/>
				</clipPath>
				<g style="clip-path:url(#SVGID_00000011027350166471001840000010334050809234228355_);">
					<g>
						<polygon style="fill:#FFFEFC;" points="743.197,510.705 682.034,449.542 682.035,449.541 678.5,446.006 613.803,510.703 
							617.338,514.239 678.499,453.077 739.662,514.24 						"/>
						<polygon style="fill:#FFFEFC;" points="743.197,490.786 682.034,429.623 682.035,429.623 678.5,426.087 613.803,490.785 
							617.338,494.32 678.499,433.158 739.662,494.321 						"/>
						<polygon style="fill:#FFFEFC;" points="743.197,470.867 682.034,409.705 682.035,409.704 678.5,406.169 613.803,470.866 
							617.338,474.401 678.499,413.24 739.662,474.402 						"/>
						<polygon style="fill:#FFFEFC;" points="743.197,450.948 682.034,389.786 682.035,389.785 678.5,386.25 613.803,450.947 
							617.338,454.482 678.499,393.321 739.662,454.484 						"/>
						<polygon style="fill:#FFFEFC;" points="743.197,431.03 682.034,369.867 682.035,369.866 678.5,366.331 613.803,431.029 
							617.338,434.564 678.499,373.402 739.662,434.565 						"/>
						<polygon style="fill:#FFFEFC;" points="743.197,411.111 682.034,349.948 682.035,349.948 678.5,346.413 613.803,411.11 
							617.338,414.645 678.499,353.484 739.662,414.646 						"/>
						<polygon style="fill:#FFFEFC;" points="743.197,391.192 682.034,330.03 682.035,330.029 678.5,326.494 613.803,391.191 
							617.338,394.726 678.499,333.565 739.662,394.728 						"/>
						<polygon style="fill:#FFFEFC;" points="743.197,371.274 682.034,310.111 682.035,310.11 678.5,306.575 613.803,371.272 
							617.338,374.808 678.499,313.646 739.662,374.809 						"/>
						<polygon style="fill:#FFFEFC;" points="743.197,351.355 682.034,290.192 682.035,290.192 678.5,286.656 613.803,351.354 
							617.338,354.889 678.499,293.728 739.662,354.89 						"/>
						<polygon style="fill:#FFFEFC;" points="743.197,331.436 682.034,270.274 682.035,270.273 678.5,266.738 613.803,331.435 
							617.338,334.97 678.499,273.809 739.662,334.971 						"/>
					</g>
				</g>
			</g>
			<polygon style="fill:#FCFFFF;" points="210.941,403.322 267.447,403.322 239.194,354.387 			"/>
			<g>
				
					<ellipse transform="matrix(0.7071 -0.7071 0.7071 0.7071 -147.2307 495.3534)" style="fill:#FF8A76;" cx="524.329" cy="425.4" rx="26.4" ry="26.4"/>
				<path style="fill:none;stroke:#7EBEEA;stroke-width:5;stroke-miterlimit:10;" d="M550.762,489.8
					c0-14.599-11.834-26.433-26.433-26.433c-14.599,0-26.433,11.835-26.433,26.433"/>
			</g>
			<path style="fill:none;stroke:#FF8A76;stroke-width:5;stroke-miterlimit:10;" d="M527.954,11.421
				c-14.599,0-26.433,11.835-26.433,26.433c0,14.599,11.835,26.433,26.433,26.433"/>
			<g>
				
					<ellipse transform="matrix(0.3123 -0.95 0.95 0.3123 122.7167 240.7254)" style="fill:#FCFFFF;" cx="227.631" cy="35.6" rx="26.4" ry="26.4"/>
				<path style="fill:none;stroke:#315BB1;stroke-width:5;stroke-miterlimit:10;" d="M201.198,71.922
					c0,14.599,11.834,26.433,26.433,26.433c14.599,0,26.433-11.835,26.433-26.433"/>
			</g>
			<g>
				<g>
					<polygon style="fill:#FF8A76;" points="134.149,96.628 129.167,96.213 131.594,67.003 99.445,69.272 102.115,37.156 
						69.97,39.428 72.646,7.319 40.502,9.591 43.418,-25.427 48.4,-25.012 45.969,4.192 78.113,1.92 75.437,34.029 107.582,31.758 
						104.912,63.873 137.058,61.605 					"/>
				</g>
			</g>
			<g>
				<g>
					<polygon style="fill:#315BB1;" points="251.83,419.547 254.031,424.036 227.714,436.942 246.158,463.371 217.223,477.559 
						235.667,503.984 206.735,518.163 225.18,544.587 193.627,560.053 191.426,555.564 217.74,542.665 199.295,516.242 
						228.229,502.061 209.784,475.637 238.719,461.449 220.277,435.022 					"/>
				</g>
			</g>
			<g>
				<g>
					<polygon style="fill:#7CC0EF;" points="772.785,261.073 768.969,264.304 750.03,241.933 728.902,266.269 708.081,241.673 
						686.957,266.008 666.145,241.412 645.022,265.748 622.322,238.925 626.139,235.695 645.07,258.065 666.193,233.728 
						687.006,258.326 708.129,233.99 728.95,258.586 750.077,234.251 					"/>
				</g>
			</g>
			<g>
				<defs>
					
						<rect id="SVGID_00000071520709322484784180000008372479337912491423_" x="121.745" y="150.56" width="168.669" height="40.708"/>
				</defs>
				<clipPath id="SVGID_00000134944301136615871210000013707873051773964988_">
					<use xlink:href="#SVGID_00000071520709322484784180000008372479337912491423_"  style="overflow:visible;"/>
				</clipPath>
				<g style="clip-path:url(#SVGID_00000134944301136615871210000013707873051773964988_);">
					<g>
						<polygon style="fill:#23327A;" points="66.366,235.611 127.528,174.449 127.529,174.45 131.064,170.915 66.367,106.217 
							62.832,109.752 123.993,170.914 62.831,232.076 						"/>
						<polygon style="fill:#23327A;" points="86.285,235.611 147.447,174.449 147.448,174.45 150.983,170.915 86.286,106.217 
							82.751,109.752 143.912,170.914 82.749,232.076 						"/>
						<polygon style="fill:#23327A;" points="106.203,235.611 167.366,174.449 167.367,174.45 170.902,170.915 106.204,106.217 
							102.669,109.752 163.831,170.914 102.668,232.076 						"/>
						<polygon style="fill:#23327A;" points="126.122,235.611 187.285,174.449 187.285,174.45 190.82,170.915 126.123,106.217 
							122.588,109.752 183.749,170.914 122.587,232.076 						"/>
						<polygon style="fill:#23327A;" points="146.041,235.611 207.203,174.449 207.204,174.45 210.739,170.915 146.042,106.217 
							142.507,109.752 203.668,170.914 142.505,232.076 						"/>
						<polygon style="fill:#23327A;" points="165.959,235.611 227.122,174.449 227.123,174.45 230.658,170.915 165.961,106.217 
							162.425,109.752 223.587,170.914 162.424,232.076 						"/>
						<polygon style="fill:#23327A;" points="185.878,235.611 247.041,174.449 247.041,174.45 250.577,170.915 185.879,106.217 
							182.344,109.752 243.505,170.914 182.343,232.076 						"/>
						<polygon style="fill:#23327A;" points="205.797,235.611 266.959,174.449 266.96,174.45 270.495,170.915 205.798,106.217 
							202.263,109.752 263.424,170.914 202.262,232.076 						"/>
						<polygon style="fill:#23327A;" points="225.715,235.611 286.878,174.449 286.879,174.45 290.414,170.915 225.717,106.217 
							222.182,109.752 283.343,170.914 222.18,232.076 						"/>
					</g>
				</g>
			</g>
			<g>
				<defs>
					
						<rect id="SVGID_00000174570908585703101330000007306394918432397196_" x="439.995" y="338.146" transform="matrix(-1 -1.224647e-16 1.224647e-16 -1 1048.6582 717.0003)" width="168.669" height="40.708"/>
				</defs>
				<clipPath id="SVGID_00000078016621505657354610000012082269328290076291_">
					<use xlink:href="#SVGID_00000174570908585703101330000007306394918432397196_"  style="overflow:visible;"/>
				</clipPath>
				<g style="clip-path:url(#SVGID_00000078016621505657354610000012082269328290076291_);">
					<g>
						<polygon style="fill:#1A206A;" points="664.043,293.803 602.88,354.966 602.879,354.965 599.344,358.5 664.041,423.197 
							667.577,419.662 606.415,358.501 667.578,297.338 						"/>
						<polygon style="fill:#1A206A;" points="644.124,293.803 582.961,354.966 582.961,354.965 579.426,358.5 644.123,423.197 
							647.658,419.662 586.497,358.501 647.659,297.338 						"/>
						<polygon style="fill:#1A206A;" points="624.205,293.803 563.043,354.966 563.042,354.965 559.507,358.5 624.204,423.197 
							627.739,419.662 566.578,358.501 627.74,297.338 						"/>
						<polygon style="fill:#1A206A;" points="604.286,293.803 543.124,354.966 543.123,354.965 539.588,358.5 604.285,423.197 
							607.82,419.662 546.659,358.501 607.822,297.338 						"/>
						<polygon style="fill:#1A206A;" points="584.368,293.803 523.205,354.966 523.205,354.965 519.669,358.5 584.367,423.197 
							587.902,419.662 526.74,358.501 587.903,297.338 						"/>
						<polygon style="fill:#1A206A;" points="564.449,293.803 503.286,354.966 503.286,354.965 499.751,358.5 564.448,423.197 
							567.983,419.662 506.822,358.501 567.984,297.338 						"/>
						<polygon style="fill:#1A206A;" points="544.53,293.803 483.368,354.966 483.367,354.965 479.832,358.5 544.529,423.197 
							548.064,419.662 486.903,358.501 548.066,297.338 						"/>
						<polygon style="fill:#1A206A;" points="524.612,293.803 463.449,354.966 463.448,354.965 459.913,358.5 524.611,423.197 
							528.146,419.662 466.984,358.501 528.147,297.338 						"/>
						<polygon style="fill:#1A206A;" points="504.693,293.803 443.53,354.966 443.53,354.965 439.995,358.5 504.692,423.197 
							508.227,419.662 447.066,358.501 508.228,297.338 						"/>
					</g>
				</g>
			</g>
			<polygon style="fill:none;stroke:#FFFFFF;stroke-width:5;stroke-miterlimit:10;" points="331.476,72.187 283.14,120.524 
				331.476,120.524 			"/>
			<polygon style="fill:none;stroke:#FFFFFF;stroke-width:5;stroke-miterlimit:10;" points="468.914,523.945 304.671,359.702 
				304.671,523.945 			"/>
			<circle style="fill:none;stroke:#315BB1;stroke-width:5;stroke-miterlimit:10;" cx="71.74" cy="290.33" r="10.235"/>
			
				<ellipse transform="matrix(0.7071 -0.7071 0.7071 0.7071 146.8174 430.156)" style="fill:none;stroke:#FCFCFC;stroke-width:5;stroke-miterlimit:10;" cx="592.653" cy="37.854" rx="10.235" ry="10.235"/>
			
				<ellipse transform="matrix(0.2298 -0.9732 0.9732 0.2298 320.3242 833.5307)" style="fill:none;stroke:#FF8B6E;stroke-width:5;stroke-miterlimit:10;" cx="686.767" cy="214.392" rx="10.235" ry="10.235"/>
			<circle style="fill:none;stroke:#7EBEEA;stroke-width:5;stroke-miterlimit:10;" cx="88.78" cy="122.967" r="10.235"/>
			<circle style="fill:none;stroke:#FFFFFF;stroke-width:5;stroke-miterlimit:10;" cx="592.653" cy="441.824" r="10.235"/>
			<g>
				<path style="fill:none;stroke:#FF8B6E;stroke-width:5;stroke-miterlimit:10;" d="M424.353,425.4
					c0,2.982-2.417,5.399-5.399,5.399c-2.982,0-5.399-2.417-5.399-5.399c0-2.982,2.417-5.399,5.399-5.399
					C421.936,420.001,424.353,422.418,424.353,425.4z"/>
				<path style="fill:#7FC0EA;" d="M445.393,425.4c0,2.982-2.417,5.399-5.399,5.399s-5.399-2.417-5.399-5.399
					c0-2.982,2.417-5.399,5.399-5.399S445.393,422.418,445.393,425.4z"/>
				<path style="fill:#FCFAFA;" d="M466.433,425.4c0,2.982-2.417,5.399-5.399,5.399s-5.399-2.417-5.399-5.399
					c0-2.982,2.417-5.399,5.399-5.399S466.433,422.418,466.433,425.4z"/>
			</g>
			<g>
				
					<ellipse transform="matrix(0.0917 -0.9958 0.9958 0.0917 390.0424 456.7408)" style="fill:#FCFCFC;" cx="445.393" cy="14.56" rx="5.399" ry="5.399"/>
				
					<ellipse transform="matrix(0.1602 -0.9871 0.9871 0.1602 338.9088 469.5399)" style="fill:#7FC0EA;" cx="445.393" cy="35.6" rx="5.399" ry="5.399"/>
				
					<ellipse transform="matrix(0.1602 -0.9871 0.9871 0.1602 318.1407 487.2094)" style="fill:#FCFCFC;" cx="445.393" cy="56.64" rx="5.399" ry="5.399"/>
			</g>
			<g>
				<circle style="fill:#77C0E9;" cx="724.601" cy="136.926" r="5.399"/>
				<circle style="fill:#FCFCFC;" cx="724.601" cy="157.966" r="5.399"/>
			</g>
			<g>
				<path style="fill:#FF8A76;" d="M146.528,20.795c0-2.982,2.417-5.399,5.399-5.399c2.982,0,5.399,2.417,5.399,5.399
					s-2.417,5.399-5.399,5.399C148.945,26.194,146.528,23.777,146.528,20.795z"/>
				<circle style="fill:#FCFCFC;" cx="130.887" cy="20.795" r="5.399"/>
			</g>
			<g>
				<circle style="fill:#FCFCFC;" cx="129.85" cy="261.246" r="5.399"/>
				<circle style="fill:none;stroke:#7EBEEA;stroke-width:5;stroke-miterlimit:10;" cx="129.85" cy="282.286" r="5.399"/>
				<circle style="fill:#FCFCFC;" cx="129.85" cy="303.326" r="5.399"/>
			</g>
			<g>
				
					<rect x="459.585" y="100.883" transform="matrix(0.7071 -0.7071 0.7071 0.7071 55.651 372.9292)" style="fill:#FF8A76;" width="36.811" height="36.811"/>
				
					<rect x="453.312" y="94.609" transform="matrix(0.7071 -0.7071 0.7071 0.7071 55.651 372.9292)" style="fill:none;stroke:#80BDEA;stroke-width:4.4412;stroke-miterlimit:10;" width="49.358" height="49.358"/>
			</g>
			<g>
				<g>
					<g>
						<g>
							
								<rect x="109.127" y="340.53" transform="matrix(0.7071 -0.7071 0.7071 0.7071 -220.3978 204.8343)" style="fill:#7FC0EA;" width="55.863" height="55.863"/>
						</g>
					</g>
				</g>
				<g>
					<g>
						<g>
							
								<rect x="120.574" y="351.977" transform="matrix(0.7071 -0.7071 0.7071 0.7071 -220.398 204.8348)" style="fill:#FF8A76;" width="32.968" height="32.968"/>
						</g>
					</g>
				</g>
			</g>
			<g>
				<g>
					
						<rect x="17.48" y="46.74" transform="matrix(0.7071 -0.7071 0.7071 0.7071 -33.2456 38.882)" style="fill:#FF8A76;" width="25.663" height="25.663"/>
				</g>
				<g>
					<g>
						<g>
							
								<rect x="22.739" y="51.999" transform="matrix(0.7071 -0.7071 0.7071 0.7071 -33.2456 38.882)" style="fill:#FCFFFF;" width="15.145" height="15.145"/>
						</g>
					</g>
				</g>
			</g>
			<circle style="fill:#7FC0EA;" cx="40.128" cy="500" r="26.4"/>
			<g>
				<g>
					<path style="fill:#FF8A76;" d="M54.884,326.233l3.536,3.536c-30.813,30.813-30.813,80.95,0,111.763
						s80.949,30.812,111.762-0.001l3.536,3.536c-32.762,32.762-86.071,32.763-118.833,0.001
						C22.121,412.305,22.121,358.996,54.884,326.233z"/>
				</g>
				<g>
					<path style="fill:#FF8A76;" d="M61.828,333.177l3.536,3.536c-26.984,26.984-26.984,70.891,0,97.875
						c26.984,26.984,70.891,26.984,97.875,0l3.536,3.536c-28.933,28.933-76.013,28.933-104.946,0
						C32.894,409.19,32.894,362.111,61.828,333.177z"/>
				</g>
				<g>
					<path style="fill:#FF8A76;" d="M68.806,340.155l3.535,3.536c-23.136,23.136-23.136,60.783,0,83.919
						c23.136,23.136,60.782,23.136,83.919-0.001l3.536,3.535c-25.086,25.086-65.904,25.086-90.99,0.001
						C43.719,406.059,43.719,365.241,68.806,340.155z"/>
				</g>
			</g>
			<g>
				
					<rect x="551.951" y="117.978" transform="matrix(6.123234e-17 -1 1 6.123234e-17 433.9721 699.3962)" style="fill:#FCFFFF;" width="29.467" height="29.467"/>
				
					<rect x="587.647" y="153.675" transform="matrix(6.123234e-17 -1 1 6.123234e-17 433.9722 770.7892)" style="fill:#7FC0EA;" width="29.467" height="29.467"/>
			</g>
		</g>
	</g>
</g>
</svg>
