<?xml version="1.0" encoding="utf-8"?>
<!-- Generator: Adobe Illustrator 27.5.0, SVG Export Plug-In . SVG Version: 6.00 Build 0)  -->
<svg version="1.1" xmlns="http://www.w3.org/2000/svg" xmlns:xlink="http://www.w3.org/1999/xlink" x="0px" y="0px"
	 viewBox="0 0 750 500" style="enable-background:new 0 0 750 500;" xml:space="preserve">
<g id="BACKGROUND">
	<rect style="fill:#181C31;" width="750" height="500"/>
</g>
<g id="OBJECTS">
	<g>
		<defs>
			<rect id="SVGID_1_" width="750" height="500"/>
		</defs>
		<clipPath id="SVGID_00000080916790742853406410000002742317641016225466_">
			<use xlink:href="#SVGID_1_"  style="overflow:visible;"/>
		</clipPath>
		<g style="clip-path:url(#SVGID_00000080916790742853406410000002742317641016225466_);">
			<g>
				<g>
					<g>
						<g>
							<g>
								<g>
									<path style="fill:#114677;" d="M694.247,188.286c1.269,0,2.297,1.029,2.297,2.297c0,1.269-1.029,2.298-2.297,2.298
										c-1.269,0-2.298-1.029-2.298-2.298C691.949,189.314,692.978,188.286,694.247,188.286z"/>
								</g>
							</g>
						</g>
						<g>
							<g>
								<g>
									<path style="fill:#114677;" d="M694.247,179.26c1.269,0,2.297,1.029,2.297,2.298c0,1.269-1.029,2.298-2.297,2.298
										c-1.269,0-2.298-1.029-2.298-2.298C691.949,180.288,692.978,179.26,694.247,179.26z"/>
								</g>
							</g>
						</g>
						<g>
							<g>
								<g>
									<path style="fill:#114677;" d="M694.247,170.234c1.269,0,2.297,1.029,2.297,2.298c0,1.269-1.029,2.298-2.297,2.298
										c-1.269,0-2.298-1.029-2.298-2.298C691.949,171.262,692.978,170.234,694.247,170.234z"/>
								</g>
							</g>
						</g>
						<g>
							<g>
								<g>
									<path style="fill:#114677;" d="M694.247,161.208c1.269,0,2.297,1.029,2.297,2.298c0,1.269-1.029,2.298-2.297,2.298
										c-1.269,0-2.298-1.029-2.298-2.298C691.949,162.236,692.978,161.208,694.247,161.208z"/>
								</g>
							</g>
						</g>
						<g>
							<g>
								<g>
									<path style="fill:#114677;" d="M694.247,152.182c1.269,0,2.297,1.029,2.297,2.298c0,1.269-1.029,2.298-2.297,2.298
										c-1.269,0-2.298-1.029-2.298-2.298C691.949,153.21,692.978,152.182,694.247,152.182z"/>
								</g>
							</g>
						</g>
						<g>
							<g>
								<g>
									<path style="fill:#114677;" d="M694.247,143.156c1.269,0,2.297,1.029,2.297,2.298c0,1.269-1.029,2.298-2.297,2.298
										c-1.269,0-2.298-1.029-2.298-2.298C691.949,144.184,692.978,143.156,694.247,143.156z"/>
								</g>
							</g>
						</g>
						<g>
							<g>
								<g>
									<path style="fill:#114677;" d="M694.247,134.13c1.269,0,2.297,1.029,2.297,2.298c0,1.269-1.029,2.298-2.297,2.298
										c-1.269,0-2.298-1.029-2.298-2.298C691.949,135.158,692.978,134.13,694.247,134.13z"/>
								</g>
							</g>
						</g>
						<g>
							<g>
								<g>
									<path style="fill:#114677;" d="M694.247,125.104c1.269,0,2.297,1.029,2.297,2.298c0,1.269-1.029,2.298-2.297,2.298
										c-1.269,0-2.298-1.029-2.298-2.298C691.949,126.132,692.978,125.104,694.247,125.104z"/>
								</g>
							</g>
						</g>
						<g>
							<g>
								<g>
									<path style="fill:#114677;" d="M694.247,116.078c1.269,0,2.297,1.029,2.297,2.298c0,1.269-1.029,2.298-2.297,2.298
										c-1.269,0-2.298-1.029-2.298-2.298C691.949,117.106,692.978,116.078,694.247,116.078z"/>
								</g>
							</g>
						</g>
						<g>
							<g>
								<g>
									<path style="fill:#114677;" d="M694.247,107.052c1.269,0,2.297,1.029,2.297,2.298c0,1.269-1.029,2.298-2.297,2.298
										c-1.269,0-2.298-1.029-2.298-2.298C691.949,108.08,692.978,107.052,694.247,107.052z"/>
								</g>
							</g>
						</g>
						<g>
							<g>
								<g>
									<path style="fill:#114677;" d="M694.247,98.026c1.269,0,2.297,1.029,2.297,2.297c0,1.269-1.029,2.298-2.297,2.298
										c-1.269,0-2.298-1.029-2.298-2.298C691.949,99.054,692.978,98.026,694.247,98.026z"/>
								</g>
							</g>
						</g>
					</g>
				</g>
				<g>
					<g>
						<g>
							<g>
								<g>
									<path style="fill:#114677;" d="M704.247,188.286c1.269,0,2.297,1.029,2.297,2.297c0,1.269-1.029,2.298-2.297,2.298
										c-1.269,0-2.298-1.029-2.298-2.298C701.949,189.314,702.978,188.286,704.247,188.286z"/>
								</g>
							</g>
						</g>
						<g>
							<g>
								<g>
									<path style="fill:#114677;" d="M704.247,179.26c1.269,0,2.297,1.029,2.297,2.298c0,1.269-1.029,2.298-2.297,2.298
										c-1.269,0-2.298-1.029-2.298-2.298C701.949,180.288,702.978,179.26,704.247,179.26z"/>
								</g>
							</g>
						</g>
						<g>
							<g>
								<g>
									<path style="fill:#114677;" d="M704.247,170.234c1.269,0,2.297,1.029,2.297,2.298c0,1.269-1.029,2.298-2.297,2.298
										c-1.269,0-2.298-1.029-2.298-2.298C701.949,171.262,702.978,170.234,704.247,170.234z"/>
								</g>
							</g>
						</g>
						<g>
							<g>
								<g>
									<path style="fill:#114677;" d="M704.247,161.208c1.269,0,2.297,1.029,2.297,2.298c0,1.269-1.029,2.298-2.297,2.298
										c-1.269,0-2.298-1.029-2.298-2.298C701.949,162.236,702.978,161.208,704.247,161.208z"/>
								</g>
							</g>
						</g>
						<g>
							<g>
								<g>
									<path style="fill:#114677;" d="M704.247,152.182c1.269,0,2.297,1.029,2.297,2.298c0,1.269-1.029,2.298-2.297,2.298
										c-1.269,0-2.298-1.029-2.298-2.298C701.949,153.21,702.978,152.182,704.247,152.182z"/>
								</g>
							</g>
						</g>
						<g>
							<g>
								<g>
									<path style="fill:#114677;" d="M704.247,143.156c1.269,0,2.297,1.029,2.297,2.298c0,1.269-1.029,2.298-2.297,2.298
										c-1.269,0-2.298-1.029-2.298-2.298C701.949,144.184,702.978,143.156,704.247,143.156z"/>
								</g>
							</g>
						</g>
						<g>
							<g>
								<g>
									<path style="fill:#114677;" d="M704.247,134.13c1.269,0,2.297,1.029,2.297,2.298c0,1.269-1.029,2.298-2.297,2.298
										c-1.269,0-2.298-1.029-2.298-2.298C701.949,135.158,702.978,134.13,704.247,134.13z"/>
								</g>
							</g>
						</g>
						<g>
							<g>
								<g>
									<path style="fill:#114677;" d="M704.247,125.104c1.269,0,2.297,1.029,2.297,2.298c0,1.269-1.029,2.298-2.297,2.298
										c-1.269,0-2.298-1.029-2.298-2.298C701.949,126.132,702.978,125.104,704.247,125.104z"/>
								</g>
							</g>
						</g>
						<g>
							<g>
								<g>
									<path style="fill:#114677;" d="M704.247,116.078c1.269,0,2.297,1.029,2.297,2.298c0,1.269-1.029,2.298-2.297,2.298
										c-1.269,0-2.298-1.029-2.298-2.298C701.949,117.106,702.978,116.078,704.247,116.078z"/>
								</g>
							</g>
						</g>
						<g>
							<g>
								<g>
									<path style="fill:#114677;" d="M704.247,107.052c1.269,0,2.297,1.029,2.297,2.298c0,1.269-1.029,2.298-2.297,2.298
										c-1.269,0-2.298-1.029-2.298-2.298C701.949,108.08,702.978,107.052,704.247,107.052z"/>
								</g>
							</g>
						</g>
						<g>
							<g>
								<g>
									<path style="fill:#114677;" d="M704.247,98.026c1.269,0,2.297,1.029,2.297,2.297c0,1.269-1.029,2.298-2.297,2.298
										c-1.269,0-2.298-1.029-2.298-2.298C701.949,99.054,702.978,98.026,704.247,98.026z"/>
								</g>
							</g>
						</g>
					</g>
				</g>
				<g>
					<g>
						<g>
							<g>
								<g>
									<path style="fill:#114677;" d="M714.247,188.286c1.269,0,2.297,1.029,2.297,2.297c0,1.269-1.029,2.298-2.297,2.298
										c-1.269,0-2.298-1.029-2.298-2.298C711.949,189.314,712.978,188.286,714.247,188.286z"/>
								</g>
							</g>
						</g>
						<g>
							<g>
								<g>
									<path style="fill:#114677;" d="M714.247,179.26c1.269,0,2.297,1.029,2.297,2.298c0,1.269-1.029,2.298-2.297,2.298
										c-1.269,0-2.298-1.029-2.298-2.298C711.949,180.288,712.978,179.26,714.247,179.26z"/>
								</g>
							</g>
						</g>
						<g>
							<g>
								<g>
									<path style="fill:#114677;" d="M714.247,170.234c1.269,0,2.297,1.029,2.297,2.298c0,1.269-1.029,2.298-2.297,2.298
										c-1.269,0-2.298-1.029-2.298-2.298C711.949,171.262,712.978,170.234,714.247,170.234z"/>
								</g>
							</g>
						</g>
						<g>
							<g>
								<g>
									<path style="fill:#114677;" d="M714.247,161.208c1.269,0,2.297,1.029,2.297,2.298c0,1.269-1.029,2.298-2.297,2.298
										c-1.269,0-2.298-1.029-2.298-2.298C711.949,162.236,712.978,161.208,714.247,161.208z"/>
								</g>
							</g>
						</g>
						<g>
							<g>
								<g>
									<path style="fill:#114677;" d="M714.247,152.182c1.269,0,2.297,1.029,2.297,2.298c0,1.269-1.029,2.298-2.297,2.298
										c-1.269,0-2.298-1.029-2.298-2.298C711.949,153.21,712.978,152.182,714.247,152.182z"/>
								</g>
							</g>
						</g>
						<g>
							<g>
								<g>
									<path style="fill:#114677;" d="M714.247,143.156c1.269,0,2.297,1.029,2.297,2.298c0,1.269-1.029,2.298-2.297,2.298
										c-1.269,0-2.298-1.029-2.298-2.298C711.949,144.184,712.978,143.156,714.247,143.156z"/>
								</g>
							</g>
						</g>
						<g>
							<g>
								<g>
									<path style="fill:#114677;" d="M714.247,134.13c1.269,0,2.297,1.029,2.297,2.298c0,1.269-1.029,2.298-2.297,2.298
										c-1.269,0-2.298-1.029-2.298-2.298C711.949,135.158,712.978,134.13,714.247,134.13z"/>
								</g>
							</g>
						</g>
						<g>
							<g>
								<g>
									<path style="fill:#114677;" d="M714.247,125.104c1.269,0,2.297,1.029,2.297,2.298c0,1.269-1.029,2.298-2.297,2.298
										c-1.269,0-2.298-1.029-2.298-2.298C711.949,126.132,712.978,125.104,714.247,125.104z"/>
								</g>
							</g>
						</g>
						<g>
							<g>
								<g>
									<path style="fill:#114677;" d="M714.247,116.078c1.269,0,2.297,1.029,2.297,2.298c0,1.269-1.029,2.298-2.297,2.298
										c-1.269,0-2.298-1.029-2.298-2.298C711.949,117.106,712.978,116.078,714.247,116.078z"/>
								</g>
							</g>
						</g>
						<g>
							<g>
								<g>
									<path style="fill:#114677;" d="M714.247,107.052c1.269,0,2.297,1.029,2.297,2.298c0,1.269-1.029,2.298-2.297,2.298
										c-1.269,0-2.298-1.029-2.298-2.298C711.949,108.08,712.978,107.052,714.247,107.052z"/>
								</g>
							</g>
						</g>
						<g>
							<g>
								<g>
									<path style="fill:#114677;" d="M714.247,98.026c1.269,0,2.297,1.029,2.297,2.297c0,1.269-1.029,2.298-2.297,2.298
										c-1.269,0-2.298-1.029-2.298-2.298C711.949,99.054,712.978,98.026,714.247,98.026z"/>
								</g>
							</g>
						</g>
					</g>
				</g>
			</g>
			<g>
				<g>
					<g>
						<g>
							<g>
								<g>
									<path style="fill:#114677;" d="M149.183,22.636c0,1.269-1.029,2.297-2.298,2.297c-1.269,0-2.298-1.029-2.298-2.297
										c0-1.269,1.029-2.298,2.298-2.298C148.155,20.339,149.183,21.367,149.183,22.636z"/>
								</g>
							</g>
						</g>
						<g>
							<g>
								<g>
									<path style="fill:#114677;" d="M158.209,22.636c0,1.269-1.029,2.297-2.298,2.297c-1.269,0-2.298-1.029-2.298-2.297
										c0-1.269,1.029-2.298,2.298-2.298C157.181,20.339,158.209,21.367,158.209,22.636z"/>
								</g>
							</g>
						</g>
						<g>
							<g>
								<g>
									<path style="fill:#114677;" d="M167.235,22.636c0,1.269-1.029,2.297-2.298,2.297c-1.269,0-2.298-1.029-2.298-2.297
										c0-1.269,1.029-2.298,2.298-2.298C166.207,20.339,167.235,21.367,167.235,22.636z"/>
								</g>
							</g>
						</g>
						<g>
							<g>
								<g>
									<path style="fill:#114677;" d="M176.261,22.636c0,1.269-1.029,2.297-2.298,2.297c-1.269,0-2.298-1.029-2.298-2.297
										c0-1.269,1.029-2.298,2.298-2.298C175.233,20.339,176.261,21.367,176.261,22.636z"/>
								</g>
							</g>
						</g>
						<g>
							<g>
								<g>
									<path style="fill:#114677;" d="M185.287,22.636c0,1.269-1.029,2.297-2.297,2.297c-1.269,0-2.298-1.029-2.298-2.297
										c0-1.269,1.029-2.298,2.298-2.298C184.259,20.339,185.287,21.367,185.287,22.636z"/>
								</g>
							</g>
						</g>
						<g>
							<g>
								<g>
									<path style="fill:#114677;" d="M194.313,22.636c0,1.269-1.029,2.297-2.298,2.297c-1.269,0-2.297-1.029-2.297-2.297
										c0-1.269,1.029-2.298,2.297-2.298C193.285,20.339,194.313,21.367,194.313,22.636z"/>
								</g>
							</g>
						</g>
						<g>
							<g>
								<g>
									<path style="fill:#114677;" d="M203.339,22.636c0,1.269-1.029,2.297-2.298,2.297c-1.269,0-2.298-1.029-2.298-2.297
										c0-1.269,1.029-2.298,2.298-2.298C202.311,20.339,203.339,21.367,203.339,22.636z"/>
								</g>
							</g>
						</g>
						<g>
							<g>
								<g>
									<path style="fill:#114677;" d="M212.365,22.636c0,1.269-1.029,2.297-2.298,2.297c-1.269,0-2.298-1.029-2.298-2.297
										c0-1.269,1.029-2.298,2.298-2.298C211.337,20.339,212.365,21.367,212.365,22.636z"/>
								</g>
							</g>
						</g>
						<g>
							<g>
								<g>
									<path style="fill:#114677;" d="M221.391,22.636c0,1.269-1.029,2.297-2.298,2.297c-1.269,0-2.298-1.029-2.298-2.297
										c0-1.269,1.029-2.298,2.298-2.298C220.363,20.339,221.391,21.367,221.391,22.636z"/>
								</g>
							</g>
						</g>
						<g>
							<g>
								<g>
									<path style="fill:#114677;" d="M230.417,22.636c0,1.269-1.029,2.297-2.298,2.297c-1.269,0-2.298-1.029-2.298-2.297
										c0-1.269,1.029-2.298,2.298-2.298C229.389,20.339,230.417,21.367,230.417,22.636z"/>
								</g>
							</g>
						</g>
						<g>
							<g>
								<g>
									<path style="fill:#114677;" d="M239.443,22.636c0,1.269-1.029,2.297-2.298,2.297c-1.269,0-2.297-1.029-2.297-2.297
										c0-1.269,1.029-2.298,2.297-2.298C238.415,20.339,239.443,21.367,239.443,22.636z"/>
								</g>
							</g>
						</g>
					</g>
				</g>
				<g>
					<g>
						<g>
							<g>
								<g>
									<path style="fill:#114677;" d="M149.183,32.636c0,1.269-1.029,2.297-2.298,2.297c-1.269,0-2.298-1.029-2.298-2.297
										c0-1.269,1.029-2.298,2.298-2.298C148.155,30.339,149.183,31.367,149.183,32.636z"/>
								</g>
							</g>
						</g>
						<g>
							<g>
								<g>
									<path style="fill:#114677;" d="M158.209,32.636c0,1.269-1.029,2.297-2.298,2.297c-1.269,0-2.298-1.029-2.298-2.297
										c0-1.269,1.029-2.298,2.298-2.298C157.181,30.339,158.209,31.367,158.209,32.636z"/>
								</g>
							</g>
						</g>
						<g>
							<g>
								<g>
									<path style="fill:#114677;" d="M167.235,32.636c0,1.269-1.029,2.297-2.298,2.297c-1.269,0-2.298-1.029-2.298-2.297
										c0-1.269,1.029-2.298,2.298-2.298C166.207,30.339,167.235,31.367,167.235,32.636z"/>
								</g>
							</g>
						</g>
						<g>
							<g>
								<g>
									<path style="fill:#114677;" d="M176.261,32.636c0,1.269-1.029,2.297-2.298,2.297c-1.269,0-2.298-1.029-2.298-2.297
										c0-1.269,1.029-2.298,2.298-2.298C175.233,30.339,176.261,31.367,176.261,32.636z"/>
								</g>
							</g>
						</g>
						<g>
							<g>
								<g>
									<path style="fill:#114677;" d="M185.287,32.636c0,1.269-1.029,2.297-2.297,2.297c-1.269,0-2.298-1.029-2.298-2.297
										c0-1.269,1.029-2.298,2.298-2.298C184.259,30.339,185.287,31.367,185.287,32.636z"/>
								</g>
							</g>
						</g>
						<g>
							<g>
								<g>
									<path style="fill:#114677;" d="M194.313,32.636c0,1.269-1.029,2.297-2.298,2.297c-1.269,0-2.297-1.029-2.297-2.297
										c0-1.269,1.029-2.298,2.297-2.298C193.285,30.339,194.313,31.367,194.313,32.636z"/>
								</g>
							</g>
						</g>
						<g>
							<g>
								<g>
									<path style="fill:#114677;" d="M203.339,32.636c0,1.269-1.029,2.297-2.298,2.297c-1.269,0-2.298-1.029-2.298-2.297
										c0-1.269,1.029-2.298,2.298-2.298C202.311,30.339,203.339,31.367,203.339,32.636z"/>
								</g>
							</g>
						</g>
						<g>
							<g>
								<g>
									<path style="fill:#114677;" d="M212.365,32.636c0,1.269-1.029,2.297-2.298,2.297c-1.269,0-2.298-1.029-2.298-2.297
										c0-1.269,1.029-2.298,2.298-2.298C211.337,30.339,212.365,31.367,212.365,32.636z"/>
								</g>
							</g>
						</g>
						<g>
							<g>
								<g>
									<path style="fill:#114677;" d="M221.391,32.636c0,1.269-1.029,2.297-2.298,2.297c-1.269,0-2.298-1.029-2.298-2.297
										c0-1.269,1.029-2.298,2.298-2.298C220.363,30.339,221.391,31.367,221.391,32.636z"/>
								</g>
							</g>
						</g>
						<g>
							<g>
								<g>
									<path style="fill:#114677;" d="M230.417,32.636c0,1.269-1.029,2.297-2.298,2.297c-1.269,0-2.298-1.029-2.298-2.297
										c0-1.269,1.029-2.298,2.298-2.298C229.389,30.339,230.417,31.367,230.417,32.636z"/>
								</g>
							</g>
						</g>
						<g>
							<g>
								<g>
									<path style="fill:#114677;" d="M239.443,32.636c0,1.269-1.029,2.297-2.298,2.297c-1.269,0-2.297-1.029-2.297-2.297
										c0-1.269,1.029-2.298,2.297-2.298C238.415,30.339,239.443,31.367,239.443,32.636z"/>
								</g>
							</g>
						</g>
					</g>
				</g>
				<g>
					<g>
						<g>
							<g>
								<g>
									<path style="fill:#114677;" d="M149.183,42.636c0,1.269-1.029,2.297-2.298,2.297c-1.269,0-2.298-1.029-2.298-2.297
										c0-1.269,1.029-2.298,2.298-2.298C148.155,40.339,149.183,41.367,149.183,42.636z"/>
								</g>
							</g>
						</g>
						<g>
							<g>
								<g>
									<path style="fill:#114677;" d="M158.209,42.636c0,1.269-1.029,2.297-2.298,2.297c-1.269,0-2.298-1.029-2.298-2.297
										c0-1.269,1.029-2.298,2.298-2.298C157.181,40.339,158.209,41.367,158.209,42.636z"/>
								</g>
							</g>
						</g>
						<g>
							<g>
								<g>
									<path style="fill:#114677;" d="M167.235,42.636c0,1.269-1.029,2.297-2.298,2.297c-1.269,0-2.298-1.029-2.298-2.297
										c0-1.269,1.029-2.298,2.298-2.298C166.207,40.339,167.235,41.367,167.235,42.636z"/>
								</g>
							</g>
						</g>
						<g>
							<g>
								<g>
									<path style="fill:#114677;" d="M176.261,42.636c0,1.269-1.029,2.297-2.298,2.297c-1.269,0-2.298-1.029-2.298-2.297
										c0-1.269,1.029-2.298,2.298-2.298C175.233,40.339,176.261,41.367,176.261,42.636z"/>
								</g>
							</g>
						</g>
						<g>
							<g>
								<g>
									<path style="fill:#114677;" d="M185.287,42.636c0,1.269-1.029,2.297-2.297,2.297c-1.269,0-2.298-1.029-2.298-2.297
										c0-1.269,1.029-2.298,2.298-2.298C184.259,40.339,185.287,41.367,185.287,42.636z"/>
								</g>
							</g>
						</g>
						<g>
							<g>
								<g>
									<path style="fill:#114677;" d="M194.313,42.636c0,1.269-1.029,2.297-2.298,2.297c-1.269,0-2.297-1.029-2.297-2.297
										c0-1.269,1.029-2.298,2.297-2.298C193.285,40.339,194.313,41.367,194.313,42.636z"/>
								</g>
							</g>
						</g>
						<g>
							<g>
								<g>
									<path style="fill:#114677;" d="M203.339,42.636c0,1.269-1.029,2.297-2.298,2.297c-1.269,0-2.298-1.029-2.298-2.297
										c0-1.269,1.029-2.298,2.298-2.298C202.311,40.339,203.339,41.367,203.339,42.636z"/>
								</g>
							</g>
						</g>
						<g>
							<g>
								<g>
									<path style="fill:#114677;" d="M212.365,42.636c0,1.269-1.029,2.297-2.298,2.297c-1.269,0-2.298-1.029-2.298-2.297
										c0-1.269,1.029-2.298,2.298-2.298C211.337,40.339,212.365,41.367,212.365,42.636z"/>
								</g>
							</g>
						</g>
						<g>
							<g>
								<g>
									<path style="fill:#114677;" d="M221.391,42.636c0,1.269-1.029,2.297-2.298,2.297c-1.269,0-2.298-1.029-2.298-2.297
										c0-1.269,1.029-2.298,2.298-2.298C220.363,40.339,221.391,41.367,221.391,42.636z"/>
								</g>
							</g>
						</g>
						<g>
							<g>
								<g>
									<path style="fill:#114677;" d="M230.417,42.636c0,1.269-1.029,2.297-2.298,2.297c-1.269,0-2.298-1.029-2.298-2.297
										c0-1.269,1.029-2.298,2.298-2.298C229.389,40.339,230.417,41.367,230.417,42.636z"/>
								</g>
							</g>
						</g>
						<g>
							<g>
								<g>
									<path style="fill:#114677;" d="M239.443,42.636c0,1.269-1.029,2.297-2.298,2.297c-1.269,0-2.297-1.029-2.297-2.297
										c0-1.269,1.029-2.298,2.297-2.298C238.415,40.339,239.443,41.367,239.443,42.636z"/>
								</g>
							</g>
						</g>
					</g>
				</g>
			</g>
			<g>
				<g>
					<g>
						<g>
							<g>
								<g>
									<circle style="fill:#BCBCBC;" cx="71.743" cy="257.435" r="1.659"/>
								</g>
							</g>
						</g>
						<g>
							<g>
								<g>
									<path style="fill:#BCBCBC;" d="M71.743,249.259c0.916,0,1.659,0.743,1.659,1.659c0,0.916-0.743,1.659-1.659,1.659
										s-1.659-0.743-1.659-1.659C70.084,250.002,70.827,249.259,71.743,249.259z"/>
								</g>
							</g>
						</g>
						<g>
							<g>
								<g>
									<path style="fill:#BCBCBC;" d="M71.743,242.743c0.916,0,1.659,0.743,1.659,1.659c0,0.916-0.743,1.659-1.659,1.659
										s-1.659-0.743-1.659-1.659C70.084,243.485,70.827,242.743,71.743,242.743z"/>
								</g>
							</g>
						</g>
						<g>
							<g>
								<g>
									<path style="fill:#BCBCBC;" d="M71.743,236.226c0.916,0,1.659,0.743,1.659,1.659c0,0.916-0.743,1.659-1.659,1.659
										s-1.659-0.743-1.659-1.659C70.084,236.969,70.827,236.226,71.743,236.226z"/>
								</g>
							</g>
						</g>
						<g>
							<g>
								<g>
									<circle style="fill:#BCBCBC;" cx="71.743" cy="231.368" r="1.659"/>
								</g>
							</g>
						</g>
						<g>
							<g>
								<g>
									<circle style="fill:#BCBCBC;" cx="71.743" cy="224.851" r="1.659"/>
								</g>
							</g>
						</g>
						<g>
							<g>
								<g>
									<circle style="fill:#BCBCBC;" cx="71.743" cy="218.334" r="1.659"/>
								</g>
							</g>
						</g>
						<g>
							<g>
								<g>
									<path style="fill:#BCBCBC;" d="M71.743,210.159c0.916,0,1.659,0.743,1.659,1.659c0,0.916-0.743,1.659-1.659,1.659
										s-1.659-0.743-1.659-1.659C70.084,210.902,70.827,210.159,71.743,210.159z"/>
								</g>
							</g>
						</g>
						<g>
							<g>
								<g>
									<path style="fill:#BCBCBC;" d="M71.743,203.642c0.916,0,1.659,0.743,1.659,1.659c0,0.916-0.743,1.659-1.659,1.659
										s-1.659-0.743-1.659-1.659C70.084,204.385,70.827,203.642,71.743,203.642z"/>
								</g>
							</g>
						</g>
						<g>
							<g>
								<g>
									<circle style="fill:#BCBCBC;" cx="71.743" cy="198.784" r="1.659"/>
								</g>
							</g>
						</g>
						<g>
							<g>
								<g>
									<path style="fill:#BCBCBC;" d="M71.743,190.609c0.916,0,1.659,0.743,1.659,1.659c0,0.916-0.743,1.659-1.659,1.659
										s-1.659-0.743-1.659-1.659C70.084,191.351,70.827,190.609,71.743,190.609z"/>
								</g>
							</g>
						</g>
					</g>
				</g>
				<g>
					<g>
						<g>
							<g>
								<g>
									<circle style="fill:#BCBCBC;" cx="78.963" cy="257.435" r="1.659"/>
								</g>
							</g>
						</g>
						<g>
							<g>
								<g>
									<path style="fill:#BCBCBC;" d="M78.963,249.259c0.916,0,1.659,0.743,1.659,1.659c0,0.916-0.743,1.659-1.659,1.659
										c-0.916,0-1.659-0.743-1.659-1.659C77.304,250.002,78.047,249.259,78.963,249.259z"/>
								</g>
							</g>
						</g>
						<g>
							<g>
								<g>
									<path style="fill:#BCBCBC;" d="M78.963,242.743c0.916,0,1.659,0.743,1.659,1.659c0,0.916-0.743,1.659-1.659,1.659
										c-0.916,0-1.659-0.743-1.659-1.659C77.304,243.485,78.047,242.743,78.963,242.743z"/>
								</g>
							</g>
						</g>
						<g>
							<g>
								<g>
									<path style="fill:#BCBCBC;" d="M78.963,236.226c0.916,0,1.659,0.743,1.659,1.659c0,0.916-0.743,1.659-1.659,1.659
										c-0.916,0-1.659-0.743-1.659-1.659C77.304,236.969,78.047,236.226,78.963,236.226z"/>
								</g>
							</g>
						</g>
						<g>
							<g>
								<g>
									<circle style="fill:#BCBCBC;" cx="78.963" cy="231.368" r="1.659"/>
								</g>
							</g>
						</g>
						<g>
							<g>
								<g>
									<circle style="fill:#BCBCBC;" cx="78.963" cy="224.851" r="1.659"/>
								</g>
							</g>
						</g>
						<g>
							<g>
								<g>
									<circle style="fill:#BCBCBC;" cx="78.963" cy="218.334" r="1.659"/>
								</g>
							</g>
						</g>
						<g>
							<g>
								<g>
									<path style="fill:#BCBCBC;" d="M78.963,210.159c0.916,0,1.659,0.743,1.659,1.659c0,0.916-0.743,1.659-1.659,1.659
										c-0.916,0-1.659-0.743-1.659-1.659C77.304,210.902,78.047,210.159,78.963,210.159z"/>
								</g>
							</g>
						</g>
						<g>
							<g>
								<g>
									<path style="fill:#BCBCBC;" d="M78.963,203.642c0.916,0,1.659,0.743,1.659,1.659c0,0.916-0.743,1.659-1.659,1.659
										c-0.916,0-1.659-0.743-1.659-1.659C77.304,204.385,78.047,203.642,78.963,203.642z"/>
								</g>
							</g>
						</g>
						<g>
							<g>
								<g>
									<circle style="fill:#BCBCBC;" cx="78.963" cy="198.784" r="1.659"/>
								</g>
							</g>
						</g>
						<g>
							<g>
								<g>
									<path style="fill:#BCBCBC;" d="M78.963,190.609c0.916,0,1.659,0.743,1.659,1.659c0,0.916-0.743,1.659-1.659,1.659
										c-0.916,0-1.659-0.743-1.659-1.659C77.304,191.351,78.047,190.609,78.963,190.609z"/>
								</g>
							</g>
						</g>
					</g>
				</g>
				<g>
					<g>
						<g>
							<g>
								<g>
									<circle style="fill:#BCBCBC;" cx="86.183" cy="257.435" r="1.659"/>
								</g>
							</g>
						</g>
						<g>
							<g>
								<g>
									<path style="fill:#BCBCBC;" d="M86.183,249.259c0.916,0,1.659,0.743,1.659,1.659c0,0.916-0.743,1.659-1.659,1.659
										s-1.659-0.743-1.659-1.659C84.524,250.002,85.267,249.259,86.183,249.259z"/>
								</g>
							</g>
						</g>
						<g>
							<g>
								<g>
									<path style="fill:#BCBCBC;" d="M86.183,242.743c0.916,0,1.659,0.743,1.659,1.659c0,0.916-0.743,1.659-1.659,1.659
										s-1.659-0.743-1.659-1.659C84.524,243.485,85.267,242.743,86.183,242.743z"/>
								</g>
							</g>
						</g>
						<g>
							<g>
								<g>
									<path style="fill:#BCBCBC;" d="M86.183,236.226c0.916,0,1.659,0.743,1.659,1.659c0,0.916-0.743,1.659-1.659,1.659
										s-1.659-0.743-1.659-1.659C84.524,236.969,85.267,236.226,86.183,236.226z"/>
								</g>
							</g>
						</g>
						<g>
							<g>
								<g>
									<circle style="fill:#BCBCBC;" cx="86.183" cy="231.368" r="1.659"/>
								</g>
							</g>
						</g>
						<g>
							<g>
								<g>
									<circle style="fill:#BCBCBC;" cx="86.183" cy="224.851" r="1.659"/>
								</g>
							</g>
						</g>
						<g>
							<g>
								<g>
									<circle style="fill:#BCBCBC;" cx="86.183" cy="218.334" r="1.659"/>
								</g>
							</g>
						</g>
						<g>
							<g>
								<g>
									<path style="fill:#BCBCBC;" d="M86.183,210.159c0.916,0,1.659,0.743,1.659,1.659c0,0.916-0.743,1.659-1.659,1.659
										s-1.659-0.743-1.659-1.659C84.524,210.902,85.267,210.159,86.183,210.159z"/>
								</g>
							</g>
						</g>
						<g>
							<g>
								<g>
									<path style="fill:#BCBCBC;" d="M86.183,203.642c0.916,0,1.659,0.743,1.659,1.659c0,0.916-0.743,1.659-1.659,1.659
										s-1.659-0.743-1.659-1.659C84.524,204.385,85.267,203.642,86.183,203.642z"/>
								</g>
							</g>
						</g>
						<g>
							<g>
								<g>
									<circle style="fill:#BCBCBC;" cx="86.183" cy="198.784" r="1.659"/>
								</g>
							</g>
						</g>
						<g>
							<g>
								<g>
									<path style="fill:#BCBCBC;" d="M86.183,190.609c0.916,0,1.659,0.743,1.659,1.659c0,0.916-0.743,1.659-1.659,1.659
										s-1.659-0.743-1.659-1.659C84.524,191.351,85.267,190.609,86.183,190.609z"/>
								</g>
							</g>
						</g>
					</g>
				</g>
			</g>
			<g>
				<g>
					<g>
						<g>
							<g>
								<polygon style="fill:#FFDE4A;" points="287.173,455.167 271.285,447.258 255.208,455.258 239.134,447.258 223.06,455.258 
									206.988,447.258 190.913,455.258 176.34,448.005 176.34,450.239 190.913,457.492 206.988,449.492 223.06,457.492 
									239.134,449.492 255.208,457.492 271.285,449.492 287.173,457.401 								"/>
							</g>
						</g>
					</g>
				</g>
				<g>
					<g>
						<g>
							<g>
								<polygon style="fill:#FFDE4A;" points="287.173,464.259 271.285,456.35 255.208,464.35 239.134,456.35 223.06,464.35 
									206.988,456.35 190.913,464.35 176.34,457.097 176.34,459.331 190.913,466.585 206.988,458.585 223.06,466.585 
									239.134,458.585 255.208,466.585 271.285,458.585 287.173,466.493 								"/>
							</g>
						</g>
					</g>
				</g>
				<g>
					<g>
						<g>
							<g>
								<polygon style="fill:#FFDE4A;" points="287.173,473.351 271.285,465.443 255.208,473.443 239.134,465.443 223.06,473.443 
									206.988,465.443 190.913,473.443 176.34,466.19 176.34,468.423 190.913,475.677 206.988,467.677 223.06,475.677 
									239.134,467.677 255.208,475.677 271.285,467.677 287.173,475.586 								"/>
							</g>
						</g>
					</g>
				</g>
				<g>
					<g>
						<g>
							<g>
								<polygon style="fill:#FFDE4A;" points="287.173,482.443 271.285,474.534 255.208,482.534 239.134,474.534 223.06,482.534 
									206.988,474.534 190.913,482.534 176.34,475.281 176.34,477.515 190.913,484.769 206.988,476.769 223.06,484.769 
									239.134,476.769 255.208,484.769 271.285,476.769 287.173,484.678 								"/>
							</g>
						</g>
					</g>
				</g>
			</g>
			<g>
				<g>
					<g>
						<rect x="343.694" y="410.754" style="fill:#F69518;" width="12.374" height="46.568"/>
					</g>
				</g>
				<g>
					<g>
						
							<rect x="343.694" y="410.754" transform="matrix(-1.836970e-16 1 -1 -1.836970e-16 783.9188 84.158)" style="fill:#F69518;" width="12.374" height="46.568"/>
					</g>
				</g>
			</g>
			<g>
				<g>
					<g>
						<g>
							<g>
								<polygon style="fill:#FFDE4A;" points="663.087,303.318 675.079,291.325 662.572,278.818 654.088,278.818 666.595,291.325 
									654.603,303.318 								"/>
							</g>
						</g>
					</g>
				</g>
				<g>
					<g>
						<g>
							<g>
								<polygon style="fill:#FFDE4A;" points="683.837,303.318 695.829,291.325 683.322,278.818 674.838,278.818 687.345,291.325 
									675.353,303.318 								"/>
							</g>
						</g>
					</g>
				</g>
				<g>
					<g>
						<g>
							<g>
								<polygon style="fill:#FFDE4A;" points="704.587,303.318 716.58,291.325 704.072,278.818 695.588,278.818 708.095,291.325 
									696.103,303.318 								"/>
							</g>
						</g>
					</g>
				</g>
				<g>
					<g>
						<g>
							<g>
								<polygon style="fill:#FFDE4A;" points="725.337,303.318 737.329,291.325 724.822,278.818 716.338,278.818 728.845,291.325 
									716.853,303.318 								"/>
							</g>
						</g>
					</g>
				</g>
			</g>
			<g>
				<g>
					<g>
						<g>
							<g>
								<path style="fill:#114677;" d="M585.624,210.002h-2c-0.576,93.939-77.165,170.185-171.236,170.185
									s-170.66-76.247-171.237-170.185h-2c0.576,95.041,78.062,172.185,173.236,172.185
									C507.562,382.187,585.048,305.043,585.624,210.002z"/>
							</g>
						</g>
					</g>
					<g>
						<g>
							<g>
								<path style="fill:#114677;" d="M568.416,210.002h-2c-0.576,84.45-69.445,152.977-154.028,152.977
									s-153.453-68.527-154.028-152.977h-2c0.576,85.553,70.342,154.977,156.028,154.977
									C498.074,364.979,567.84,295.555,568.416,210.002z"/>
							</g>
						</g>
					</g>
					<g>
						<g>
							<g>
								<path style="fill:#114677;" d="M551.208,210.002h-2c-0.576,74.961-61.726,135.768-136.82,135.768
									s-136.245-60.807-136.82-135.768h-2c0.576,76.064,62.623,137.768,138.82,137.768S550.633,286.066,551.208,210.002z"/>
							</g>
						</g>
					</g>
					<g>
						<g>
							<g>
								<path style="fill:#114677;" d="M534,210.002h-2c-0.575,65.473-54.007,118.56-119.613,118.56s-119.038-53.087-119.613-118.56
									h-2c0.575,66.575,54.904,120.56,121.613,120.56S533.425,276.577,534,210.002z"/>
							</g>
						</g>
					</g>
					<g>
						<g>
							<g>
								<path style="fill:#114677;" d="M516.792,210.002h-2c-0.574,55.983-46.287,101.352-102.405,101.352
									c-56.117,0-101.83-45.369-102.404-101.352h-2c0.574,57.087,47.184,103.352,104.404,103.352
									C469.608,313.354,516.218,267.089,516.792,210.002z"/>
							</g>
						</g>
					</g>
					<g>
						<g>
							<g>
								<path style="fill:#114677;" d="M499.584,210.002h-2.014c-0.575,46.493-38.555,84.144-85.183,84.144
									c-46.628,0-84.607-37.651-85.182-84.144h-2.013c0.573,47.598,39.464,86.144,87.196,86.144
									C460.12,296.146,499.011,257.6,499.584,210.002z"/>
							</g>
						</g>
					</g>
					<g>
						<g>
							<g>
								<path style="fill:#114677;" d="M482.362,210.002h-2c-0.573,37.005-30.835,66.936-67.975,66.936
									c-37.139,0-67.401-29.931-67.974-66.936h-2c0.574,38.108,31.732,68.936,69.974,68.936S481.789,248.11,482.362,210.002z"/>
							</g>
						</g>
					</g>
					<g>
						<g>
							<g>
								<path style="fill:#114677;" d="M465.155,210.002h-2c-0.571,27.516-23.116,49.728-50.767,49.728
									s-50.196-22.212-50.766-49.728h-2c0.571,28.619,24.013,51.728,52.766,51.728
									C441.141,261.73,464.583,238.621,465.155,210.002z"/>
							</g>
						</g>
					</g>
					<g>
						<g>
							<g>
								<path style="fill:#114677;" d="M447.947,210.002h-2c-0.566,18.027-15.396,32.52-33.559,32.52
									c-18.162,0-32.993-14.493-33.558-32.52h-2c0.566,19.13,16.293,34.52,35.558,34.52
									C431.653,244.522,447.38,229.132,447.947,210.002z"/>
							</g>
						</g>
					</g>
				</g>
				<g>
					<g>
						<g>
							<g>
								<path style="fill:#56646D;" d="M164.376,210.002h1.071c0.309-50.296,41.315-91.119,91.682-91.119
									c50.367,0,91.373,40.823,91.681,91.119h1.071c-0.309-50.886-41.795-92.19-92.752-92.19
									C206.171,117.813,164.684,159.116,164.376,210.002z"/>
							</g>
						</g>
					</g>
					<g>
						<g>
							<g>
								<path style="fill:#56646D;" d="M173.589,210.002h1.071c0.308-45.215,37.182-81.905,82.468-81.905
									c45.286,0,82.16,36.69,82.468,81.905h1.071c-0.308-45.806-37.662-82.976-83.539-82.976S173.898,164.196,173.589,210.002z"/>
							</g>
						</g>
					</g>
					<g>
						<g>
							<g>
								<path style="fill:#56646D;" d="M182.803,210.002h1.071c0.308-40.135,33.048-72.692,73.255-72.692
									s72.947,32.557,73.255,72.692h1.071c-0.308-40.725-33.529-73.762-74.326-73.762
									C216.332,136.24,183.111,169.277,182.803,210.002z"/>
							</g>
						</g>
					</g>
					<g>
						<g>
							<g>
								<path style="fill:#56646D;" d="M192.016,210.002h1.071c0.308-35.055,28.916-63.478,64.042-63.478
									s63.734,28.424,64.042,63.478h1.071c-0.308-35.645-29.396-64.549-65.112-64.549
									C221.412,145.453,192.324,174.357,192.016,210.002z"/>
							</g>
						</g>
					</g>
					<g>
						<g>
							<g>
								<path style="fill:#56646D;" d="M201.229,210.002h1.071c0.307-29.974,24.782-54.265,54.828-54.265
									c30.046,0,54.521,24.291,54.828,54.265h1.071c-0.307-30.565-25.263-55.336-55.899-55.336
									C226.492,154.666,201.537,179.437,201.229,210.002z"/>
							</g>
						</g>
					</g>
					<g>
						<g>
							<g>
								<path style="fill:#56646D;" d="M210.443,210.002h1.078c0.308-24.893,20.643-45.052,45.608-45.052
									c24.965,0,45.299,20.158,45.607,45.052h1.078c-0.307-25.484-21.13-46.122-46.685-46.122
									C231.572,163.88,210.749,184.518,210.443,210.002z"/>
							</g>
						</g>
					</g>
					<g>
						<g>
							<g>
								<path style="fill:#56646D;" d="M219.663,210.002h1.071c0.307-19.813,16.51-35.838,36.394-35.838
									c19.884,0,36.087,16.025,36.394,35.838h1.071c-0.307-20.403-16.99-36.909-37.465-36.909S219.97,189.599,219.663,210.002z"/>
							</g>
						</g>
					</g>
					<g>
						<g>
							<g>
								<path style="fill:#56646D;" d="M228.876,210.002h1.071c0.306-14.733,12.377-26.625,27.181-26.625
									c14.804,0,26.875,11.892,27.181,26.625h1.071c-0.306-15.323-12.857-27.696-28.251-27.696
									C241.733,182.306,229.182,194.679,228.876,210.002z"/>
							</g>
						</g>
					</g>
					<g>
						<g>
							<g>
								<path style="fill:#56646D;" d="M238.09,210.002h1.071c0.303-9.652,8.243-17.412,17.968-17.412
									c9.724,0,17.665,7.76,17.967,17.412h1.071c-0.303-10.243-8.724-18.482-19.038-18.482S238.393,199.76,238.09,210.002z"/>
							</g>
						</g>
					</g>
				</g>
			</g>
			<g>
				<path style="fill:#FFE231;" d="M528.826,166.137h-71.652L493,104.084L528.826,166.137z M463.236,162.637h59.527L493,111.085
					L463.236,162.637z"/>
			</g>
			<g>
				<polygon style="fill:#56646D;" points="383.415,110.481 416.95,52.397 349.88,52.397 				"/>
			</g>
			<g>
				<polygon style="fill:#56646D;" points="692.941,402.766 728.399,423.238 728.399,382.294 				"/>
			</g>
			<g>
				<g>
					<polygon style="fill:#F69518;" points="688.703,452.375 623.52,452.375 690.633,568.618 733.087,529.251 					"/>
				</g>
				<g>
					<polygon style="fill:#FFDE4A;" points="760.835,452.375 704.555,452.375 743.411,519.678 780.068,485.688 					"/>
				</g>
			</g>
			<g>
				<polygon style="fill:#BCBCBC;" points="635.403,411.229 681.976,330.562 588.83,330.562 				"/>
			</g>
			<g>
				<polygon style="fill:#BCBCBC;" points="28.584,41.11 46.573,9.953 10.596,9.953 				"/>
			</g>
			<g>
				<g>
					<rect x="72.875" y="338.083" style="fill:#FFDE4A;" width="36.911" height="36.911"/>
				</g>
				<g>
					
						<rect x="602.623" y="272.466" transform="matrix(0.7071 0.7071 -0.7071 0.7071 387.6223 -353.9601)" style="fill:#FFDE4A;" width="36.911" height="36.911"/>
				</g>
				<g>
					<polygon style="fill:#F69518;" points="127.911,338.208 127.911,393.119 73,393.119 73,420.244 155.036,420.244 
						155.036,338.208 					"/>
				</g>
			</g>
			<g>
				<g>
					<g>
						<polygon style="fill:#BCBCBC;" points="231.757,388.084 104.263,260.59 101.435,260.59 228.929,388.084 						"/>
					</g>
				</g>
				<g>
					<g>
						<polygon style="fill:#BCBCBC;" points="248.298,388.084 120.804,260.59 117.976,260.59 245.47,388.084 						"/>
					</g>
				</g>
				<g>
					<g>
						<polygon style="fill:#BCBCBC;" points="264.839,388.084 137.346,260.59 134.518,260.59 262.011,388.084 						"/>
					</g>
				</g>
				<g>
					<g>
						<polygon style="fill:#BCBCBC;" points="281.381,388.084 153.887,260.59 151.059,260.59 278.553,388.084 						"/>
					</g>
				</g>
			</g>
			<g>
				<g>
					<g>
						<polygon style="fill:#BCBCBC;" points="612.836,124.494 737.329,0 734.501,0 610.008,124.494 						"/>
					</g>
				</g>
				<g>
					<g>
						<polygon style="fill:#BCBCBC;" points="596.294,124.494 720.789,0 717.96,0 593.466,124.494 						"/>
					</g>
				</g>
				<g>
					<g>
						<polygon style="fill:#BCBCBC;" points="579.753,124.494 704.246,0 701.418,0 576.925,124.494 						"/>
					</g>
				</g>
				<g>
					<g>
						<polygon style="fill:#BCBCBC;" points="563.212,124.494 687.705,0 684.877,0 560.383,124.494 						"/>
					</g>
				</g>
			</g>
			<g>
				<g>
					<g>
						<polygon style="fill:#BCBCBC;" points="538.197,448.749 486.946,500 489.774,500 541.025,448.749 						"/>
					</g>
				</g>
				<g>
					<g>
						<polygon style="fill:#BCBCBC;" points="521.656,448.749 470.404,500 473.232,500 524.484,448.749 						"/>
					</g>
				</g>
				<g>
					<g>
						<polygon style="fill:#BCBCBC;" points="505.114,448.749 453.863,500 456.691,500 507.942,448.749 						"/>
					</g>
				</g>
				<g>
					<g>
						<polygon style="fill:#BCBCBC;" points="488.573,448.749 437.322,500 440.15,500 491.401,448.749 						"/>
					</g>
				</g>
			</g>
			<g>
				<g>
					<polygon style="fill:#BCBCBC;" points="156.341,89.74 126.497,89.74 139.275,115.586 126.497,141.431 156.341,141.431 
						171.263,115.586 					"/>
				</g>
			</g>
			<g>
				<g>
					<path style="fill:#FFDE4A;" d="M115.253,163.061h-54.82l-27.41-47.475l27.41-47.476h54.82l27.41,47.476L115.253,163.061z
						 M63.819,157.195h48.046l24.023-41.609l-24.023-41.609H63.819l-24.023,41.609L63.819,157.195z"/>
				</g>
			</g>
			<g>
				<g>
					<path style="fill:#56646D;" d="M35.919,339.473h-54.82l-27.41-47.475l27.41-47.475h54.82l27.41,47.475L35.919,339.473z
						 M-15.514,333.607h48.046l24.023-41.609l-24.023-41.609h-48.046l-24.023,41.609L-15.514,333.607z"/>
				</g>
			</g>
			<g>
				<circle style="fill:#114677;" cx="283.471" cy="61.804" r="7.304"/>
			</g>
			<g>
				
					<ellipse transform="matrix(0.7071 -0.7071 0.7071 0.7071 13.182 331.1574)" style="fill:#F69518;" cx="406.333" cy="149.667" rx="16.667" ry="16.667"/>
			</g>
			<g>
				<circle style="fill:#F69518;" cx="33.022" cy="465.443" r="16.667"/>
			</g>
			<g>
				<circle style="fill:#FFDE4A;" cx="460.176" cy="44.866" r="12.229"/>
			</g>
			<g>
				<circle style="fill:#114677;" cx="33.022" cy="198.784" r="12.229"/>
			</g>
			<g>
				<g>
					<path style="fill:#FFE231;" d="M549.325,210.002h82.802c-0.24-22.665-18.679-40.966-41.401-40.966
						C568.004,169.036,549.565,187.337,549.325,210.002z"/>
				</g>
			</g>
			<g>
				<g>
					<g>
						<path style="fill:#FFE231;" d="M545.667,388.083c0-4.595,3.738-8.333,8.333-8.333h18.5c4.595,0,8.333,3.738,8.333,8.333
							c0,4.596-3.738,8.334-8.333,8.334H554C549.405,396.417,545.667,392.679,545.667,388.083z M577.333,388.083
							c0-2.665-2.169-4.833-4.833-4.833H554c-2.665,0-4.833,2.168-4.833,4.833c0,2.665,2.169,4.834,4.833,4.834h18.5
							C575.165,392.917,577.333,390.748,577.333,388.083z"/>
					</g>
				</g>
				<g>
					<g>
						<path style="fill:#FFE231;" d="M563.25,370.5c4.595,0,8.333,3.738,8.333,8.333v18.5c0,4.595-3.738,8.334-8.333,8.334
							c-4.596,0-8.334-3.738-8.334-8.334v-18.5C554.917,374.238,558.655,370.5,563.25,370.5z M563.25,402.167
							c2.665,0,4.833-2.169,4.833-4.834v-18.5c0-2.665-2.168-4.833-4.833-4.833c-2.665,0-4.834,2.169-4.834,4.833v18.5
							C558.417,399.999,560.585,402.167,563.25,402.167z"/>
					</g>
				</g>
			</g>
			<g>
				<g>
					<g>
						<g>
							<g>
								<g>
									<circle style="fill:#FFFFFF;" cx="541.983" cy="37.542" r="4.204"/>
								</g>
							</g>
						</g>
						<g>
							<g>
								<g>
									<path style="fill:#FFFFFF;" d="M562.704,37.542c0,2.322-1.882,4.204-4.204,4.204c-2.322,0-4.205-1.883-4.205-4.204
										c0-2.322,1.882-4.204,4.205-4.204C560.822,33.337,562.704,35.22,562.704,37.542z"/>
								</g>
							</g>
						</g>
						<g>
							<g>
								<g>
									<path style="fill:#FFFFFF;" d="M579.221,37.542c0,2.322-1.882,4.204-4.204,4.204c-2.322,0-4.204-1.883-4.204-4.204
										c0-2.322,1.882-4.204,4.204-4.204C577.338,33.337,579.221,35.22,579.221,37.542z"/>
								</g>
							</g>
						</g>
					</g>
				</g>
				<g>
					<g>
						<g>
							<g>
								<g>
									<path style="fill:#FFFFFF;" d="M546.188,55.84c0,2.322-1.882,4.204-4.204,4.204s-4.204-1.882-4.204-4.204
										c0-2.322,1.882-4.204,4.204-4.204S546.188,53.518,546.188,55.84z"/>
								</g>
							</g>
						</g>
						<g>
							<g>
								<g>
									<path style="fill:#FFFFFF;" d="M562.704,55.84c0,2.322-1.882,4.204-4.204,4.204c-2.322,0-4.205-1.882-4.205-4.204
										c0-2.322,1.882-4.204,4.205-4.204C560.822,51.636,562.704,53.518,562.704,55.84z"/>
								</g>
							</g>
						</g>
						<g>
							<g>
								<g>
									<path style="fill:#FFFFFF;" d="M579.221,55.84c0,2.322-1.882,4.204-4.204,4.204c-2.322,0-4.204-1.882-4.204-4.204
										c0-2.322,1.882-4.204,4.204-4.204C577.338,51.636,579.221,53.518,579.221,55.84z"/>
								</g>
							</g>
						</g>
					</g>
				</g>
				<g>
					<g>
						<g>
							<g>
								<g>
									<path style="fill:#FFFFFF;" d="M546.188,74.139c0,2.322-1.882,4.204-4.204,4.204s-4.204-1.882-4.204-4.204
										c0-2.322,1.882-4.204,4.204-4.204S546.188,71.817,546.188,74.139z"/>
								</g>
							</g>
						</g>
						<g>
							<g>
								<g>
									<path style="fill:#FFFFFF;" d="M562.704,74.139c0,2.322-1.882,4.204-4.204,4.204c-2.322,0-4.205-1.882-4.205-4.204
										c0-2.322,1.882-4.204,4.205-4.204C560.822,69.935,562.704,71.817,562.704,74.139z"/>
								</g>
							</g>
						</g>
						<g>
							<g>
								<g>
									<path style="fill:#FFFFFF;" d="M579.221,74.139c0,2.322-1.882,4.204-4.204,4.204c-2.322,0-4.204-1.882-4.204-4.204
										c0-2.322,1.882-4.204,4.204-4.204C577.338,69.935,579.221,71.817,579.221,74.139z"/>
								</g>
							</g>
						</g>
					</g>
				</g>
			</g>
			<g>
				<g>
					<g>
						<g>
							<g>
								<g>
									<path style="fill:#FFFFFF;" d="M80.491,442.776c0,2.105-1.706,3.811-3.811,3.811c-2.105,0-3.811-1.707-3.811-3.811
										c0-2.105,1.706-3.812,3.811-3.812C78.785,438.965,80.491,440.671,80.491,442.776z"/>
								</g>
							</g>
						</g>
						<g>
							<g>
								<g>
									<path style="fill:#FFFFFF;" d="M95.465,442.776c0,2.105-1.706,3.811-3.811,3.811c-2.105,0-3.812-1.707-3.812-3.811
										c0-2.105,1.707-3.812,3.812-3.812C93.759,438.965,95.465,440.671,95.465,442.776z"/>
								</g>
							</g>
						</g>
						<g>
							<g>
								<g>
									<path style="fill:#FFFFFF;" d="M110.438,442.776c0,2.105-1.706,3.811-3.812,3.811c-2.105,0-3.811-1.707-3.811-3.811
										c0-2.105,1.707-3.812,3.811-3.812C108.732,438.965,110.438,440.671,110.438,442.776z"/>
								</g>
							</g>
						</g>
					</g>
				</g>
				<g>
					<g>
						<g>
							<g>
								<g>
									<path style="fill:#FFFFFF;" d="M80.491,459.366c0,2.105-1.706,3.811-3.811,3.811c-2.105,0-3.811-1.707-3.811-3.811
										c0-2.105,1.706-3.811,3.811-3.811C78.785,455.554,80.491,457.261,80.491,459.366z"/>
								</g>
							</g>
						</g>
						<g>
							<g>
								<g>
									<path style="fill:#FFFFFF;" d="M95.465,459.366c0,2.105-1.706,3.811-3.811,3.811c-2.105,0-3.812-1.707-3.812-3.811
										c0-2.105,1.707-3.811,3.812-3.811C93.759,455.554,95.465,457.261,95.465,459.366z"/>
								</g>
							</g>
						</g>
						<g>
							<g>
								<g>
									<path style="fill:#FFFFFF;" d="M110.438,459.366c0,2.105-1.706,3.811-3.812,3.811c-2.105,0-3.811-1.707-3.811-3.811
										c0-2.105,1.707-3.811,3.811-3.811C108.732,455.554,110.438,457.261,110.438,459.366z"/>
								</g>
							</g>
						</g>
					</g>
				</g>
				<g>
					<g>
						<g>
							<g>
								<g>
									<path style="fill:#FFFFFF;" d="M80.491,475.955c0,2.105-1.706,3.811-3.811,3.811c-2.105,0-3.811-1.706-3.811-3.811
										c0-2.105,1.706-3.811,3.811-3.811C78.785,472.143,80.491,473.85,80.491,475.955z"/>
								</g>
							</g>
						</g>
						<g>
							<g>
								<g>
									<path style="fill:#FFFFFF;" d="M95.465,475.955c0,2.105-1.706,3.811-3.811,3.811c-2.105,0-3.812-1.706-3.812-3.811
										c0-2.105,1.707-3.811,3.812-3.811C93.759,472.143,95.465,473.85,95.465,475.955z"/>
								</g>
							</g>
						</g>
						<g>
							<g>
								<g>
									<path style="fill:#FFFFFF;" d="M110.438,475.955c0,2.105-1.706,3.811-3.812,3.811c-2.105,0-3.811-1.706-3.811-3.811
										c0-2.105,1.707-3.811,3.811-3.811C108.732,472.143,110.438,473.85,110.438,475.955z"/>
								</g>
							</g>
						</g>
					</g>
				</g>
			</g>
			<g>
				<g>
					<g>
						<path style="fill:#F69518;" d="M645.74,165.605c-8.789,0-15.938-7.15-15.938-15.938c0-8.789,7.15-15.939,15.938-15.939
							c8.789,0,15.938,7.15,15.938,15.939C661.679,158.455,654.529,165.605,645.74,165.605z M645.74,134.728
							c-8.237,0-14.938,6.702-14.938,14.939s6.701,14.938,14.938,14.938s14.938-6.701,14.938-14.938S653.977,134.728,645.74,134.728
							z"/>
					</g>
				</g>
				<g>
					<g>
						<path style="fill:#F69518;" d="M645.74,158.621c-4.938,0-8.954-4.017-8.954-8.954s4.017-8.955,8.954-8.955
							s8.955,4.017,8.955,8.955S650.678,158.621,645.74,158.621z M645.74,141.712c-4.386,0-7.954,3.568-7.954,7.955
							c0,4.386,3.568,7.954,7.954,7.954c4.386,0,7.955-3.568,7.955-7.954C653.695,145.281,650.126,141.712,645.74,141.712z"/>
					</g>
				</g>
			</g>
			<g>
				<g>
					<g>
						<path style="fill:#BCBCBC;" d="M437.322,449.977c-10.814,0-19.611-8.798-19.611-19.611s8.797-19.612,19.611-19.612
							s19.611,8.798,19.611,19.612S448.136,449.977,437.322,449.977z M437.322,411.985c-10.135,0-18.381,8.246-18.381,18.381
							c0,10.135,8.245,18.381,18.381,18.381c10.135,0,18.381-8.245,18.381-18.381C455.703,420.231,447.457,411.985,437.322,411.985z
							"/>
					</g>
				</g>
				<g>
					<g>
						<path style="fill:#BCBCBC;" d="M437.322,441.383c-6.075,0-11.017-4.942-11.017-11.017s4.942-11.018,11.017-11.018
							s11.018,4.943,11.018,11.018S443.397,441.383,437.322,441.383z M437.322,420.578c-5.396,0-9.787,4.391-9.787,9.788
							c0,5.396,4.391,9.787,9.787,9.787c5.397,0,9.788-4.391,9.788-9.787C447.109,424.969,442.719,420.578,437.322,420.578z"/>
					</g>
				</g>
			</g>
			<g>
				<g>
					<g>
						<path style="fill:#BCBCBC;" d="M210.442,109.351c-10.813,0-19.611-8.798-19.611-19.611s8.797-19.612,19.611-19.612
							c10.814,0,19.611,8.798,19.611,19.612S221.256,109.351,210.442,109.351z M210.442,71.359c-10.135,0-18.38,8.246-18.38,18.381
							c0,10.135,8.245,18.381,18.38,18.381c10.135,0,18.381-8.245,18.381-18.381C228.823,79.605,220.578,71.359,210.442,71.359z"/>
					</g>
				</g>
				<g>
					<g>
						<path style="fill:#BCBCBC;" d="M210.442,100.758c-6.075,0-11.017-4.942-11.017-11.017c0-6.075,4.942-11.018,11.017-11.018
							c6.075,0,11.018,4.943,11.018,11.018C221.46,95.816,216.518,100.758,210.442,100.758z M210.442,79.953
							c-5.396,0-9.787,4.391-9.787,9.788c0,5.396,4.391,9.787,9.787,9.787c5.397,0,9.788-4.391,9.788-9.787
							C220.23,84.343,215.839,79.953,210.442,79.953z"/>
					</g>
				</g>
			</g>
		</g>
	</g>
</g>
</svg>
