<?xml version="1.0" encoding="utf-8"?>
<!-- Generator: Adobe Illustrator 27.5.0, SVG Export Plug-In . SVG Version: 6.00 Build 0)  -->
<svg version="1.1" xmlns="http://www.w3.org/2000/svg" xmlns:xlink="http://www.w3.org/1999/xlink" x="0px" y="0px"
	 viewBox="0 0 750 500" style="enable-background:new 0 0 750 500;" xml:space="preserve">
<g id="BACKGROUND">
	<rect style="fill:#181C31;" width="750" height="500"/>
</g>
<g id="OBJECTS">
	<g>
		<defs>
			<rect id="SVGID_1_" width="750" height="500"/>
		</defs>
		<clipPath id="SVGID_00000165950404918903925310000008639885985256583336_">
			<use xlink:href="#SVGID_1_"  style="overflow:visible;"/>
		</clipPath>
		<g style="clip-path:url(#SVGID_00000165950404918903925310000008639885985256583336_);">
			<g>
				<g>
					<g>
						<g>
							<g>
								<g>
									<polygon style="fill:#FFDE4A;" points="674.652,357.415 694.261,377.024 714.712,356.573 714.712,342.701 694.261,363.151 
										674.652,343.542 									"/>
								</g>
							</g>
						</g>
					</g>
				</g>
				<g>
					<g>
						<g>
							<g>
								<g>
									<polygon style="fill:#FFDE4A;" points="674.652,391.343 694.261,410.952 714.712,390.501 714.712,376.629 694.261,397.079 
										674.652,377.47 									"/>
								</g>
							</g>
						</g>
					</g>
				</g>
				<g>
					<g>
						<g>
							<g>
								<g>
									<polygon style="fill:#FFDE4A;" points="674.652,425.271 694.261,444.88 714.712,424.43 714.712,410.557 694.261,431.007 
										674.652,411.398 									"/>
								</g>
							</g>
						</g>
					</g>
				</g>
				<g>
					<g>
						<g>
							<g>
								<g>
									<polygon style="fill:#FFDE4A;" points="674.652,459.199 694.261,478.808 714.712,458.358 714.712,444.485 694.261,464.935 
										674.652,445.327 									"/>
								</g>
							</g>
						</g>
					</g>
				</g>
			</g>
			<g>
				<g>
					<polygon style="fill:#56646D;" points="-99.059,402.766 -63.601,423.238 -63.601,382.294 					"/>
				</g>
			</g>
			<g>
				<g>
					<g>
						<g>
							<polygon style="fill:#F6345A;" points="259.819,463.353 208.568,514.604 211.396,514.604 262.647,463.353 							"/>
						</g>
					</g>
				</g>
				<g>
					<g>
						<g>
							<polygon style="fill:#F6345A;" points="243.277,463.353 192.026,514.604 194.854,514.604 246.106,463.353 							"/>
						</g>
					</g>
				</g>
				<g>
					<g>
						<g>
							<polygon style="fill:#F6345A;" points="226.736,463.353 175.485,514.604 178.313,514.604 229.564,463.353 							"/>
						</g>
					</g>
				</g>
				<g>
					<g>
						<g>
							<polygon style="fill:#F6345A;" points="210.195,463.353 158.944,514.604 161.772,514.604 213.023,463.353 							"/>
						</g>
					</g>
				</g>
			</g>
			<g>
				<g>
					<g>
						<g>
							<polygon style="fill:#F6345A;" points="15.309,14.08 40.63,39.4 37.802,39.4 12.481,14.08 							"/>
						</g>
					</g>
				</g>
				<g>
					<g>
						<g>
							<polygon style="fill:#F6345A;" points="31.851,14.08 57.172,39.4 54.343,39.4 29.023,14.08 							"/>
						</g>
					</g>
				</g>
				<g>
					<g>
						<g>
							<polygon style="fill:#F6345A;" points="48.392,14.08 73.713,39.4 70.885,39.4 45.564,14.08 							"/>
						</g>
					</g>
				</g>
				<g>
					<g>
						<g>
							<polygon style="fill:#F6345A;" points="64.933,14.08 90.254,39.4 87.426,39.4 62.105,14.08 							"/>
						</g>
					</g>
				</g>
			</g>
			<g>
				<g>
					<path style="fill:#BCBCBC;" d="M375,387.459L216.565,113.041h316.871l-0.433,0.75L375,387.459z M218.297,114.041L375,385.459
						l156.703-271.418H218.297z"/>
				</g>
				<g>
					<path style="fill:#BCBCBC;" d="M375,360.273l-134.892-233.64h269.784l-0.434,0.75L375,360.273z M241.84,127.634L375,358.273
						l133.159-230.64H241.84z"/>
				</g>
				<g>
					<path style="fill:#BCBCBC;" d="M375,333.088L263.651,140.227h222.697l-0.434,0.75L375,333.088z M265.384,141.227L375,331.088
						l109.616-189.861H265.384z"/>
				</g>
				<g>
					<path style="fill:#BCBCBC;" d="M375,305.902l-87.806-152.083h175.611l-0.434,0.75L375,305.902z M288.927,154.819L375,303.902
						l86.073-149.083H288.927z"/>
				</g>
				<g>
					<path style="fill:#BCBCBC;" d="M375,278.718l-64.262-111.306h128.525l-0.434,0.75L375,278.718z M312.47,168.412L375,276.718
						l62.53-108.306H312.47z"/>
				</g>
				<g>
					<path style="fill:#BCBCBC;" d="M375,251.532l-40.719-70.528h81.439L375,251.532z M336.013,182.004L375,249.532l38.987-67.528
						H336.013z"/>
				</g>
			</g>
			<g>
				<path style="fill:#4AD6D5;" d="M157.253,441.057c0.863-17.91,15.655-32.167,33.779-32.167c18.124,0,32.916,14.257,33.779,32.167
					h24.667c-0.878-31.535-26.698-56.833-58.445-56.833c-31.747,0-57.567,25.299-58.445,56.833H157.253z"/>
			</g>
			<g>
				<path style="fill:#EE4862;" d="M609.333,107.372c10.478,0.505,18.819,9.159,18.819,19.762c0,10.603-8.341,19.257-18.819,19.762
					v14.431c18.449-0.514,33.25-15.62,33.25-34.193c0-18.573-14.801-33.679-33.25-34.193V107.372z"/>
			</g>
			<g>
				<path style="fill:#DDDDDD;" d="M194.071,52c-25.321,0-45.848,20.527-45.848,45.848c0,25.321,20.527,45.847,45.848,45.847
					c25.321,0,45.848-20.527,45.848-45.847C239.918,72.527,219.391,52,194.071,52z M194.071,124.359
					c-14.642,0-26.512-11.87-26.512-26.511c0-14.642,11.87-26.512,26.512-26.512c14.642,0,26.511,11.87,26.511,26.512
					C220.582,112.489,208.712,124.359,194.071,124.359z"/>
			</g>
			<g>
				<g>
					<path style="fill:#BCBCBC;" d="M0,614.041c-62.882,0-114.041-51.158-114.041-114.041S-62.882,385.959,0,385.959
						S114.041,437.117,114.041,500S62.882,614.041,0,614.041z M0,386.959c-62.331,0-113.041,50.71-113.041,113.041
						S-62.331,613.041,0,613.041S113.041,562.331,113.041,500S62.331,386.959,0,386.959z M0,569.119
						c-38.113,0-69.12-31.007-69.12-69.119S-38.113,430.881,0,430.881S69.12,461.888,69.12,500S38.113,569.119,0,569.119z
						 M0,431.881c-37.562,0-68.12,30.559-68.12,68.119S-37.562,568.119,0,568.119S68.12,537.56,68.12,500S37.562,431.881,0,431.881z
						"/>
				</g>
				<g>
					<path style="fill:#BCBCBC;" d="M0,590.833c-50.086,0-90.834-40.747-90.834-90.833S-50.086,409.167,0,409.167
						S90.834,449.914,90.834,500S50.086,590.833,0,590.833z M0,410.167c-49.534,0-89.834,40.299-89.834,89.833
						S-49.534,589.833,0,589.833S89.834,549.534,89.834,500S49.534,410.167,0,410.167z M0,552.735
						c-29.079,0-52.736-23.657-52.736-52.735c0-29.078,23.657-52.735,52.736-52.735S52.736,470.922,52.736,500
						C52.736,529.078,29.079,552.735,0,552.735z M0,448.265c-28.527,0-51.736,23.208-51.736,51.735
						c0,28.527,23.209,51.735,51.736,51.735S51.736,528.527,51.736,500C51.736,471.473,28.527,448.265,0,448.265z"/>
				</g>
			</g>
			<g>
				<g>
					<g>
						<path style="fill:#F6345A;" d="M270,282c0-1.66,1.34-3,3-3l0,0c1.66,0,3,1.34,3,3l0,0c0,1.66-1.34,3-3,3l0,0
							C271.34,285,270,283.66,270,282z M255,282c0-1.66,1.34-3,3-3l0,0c1.649,0,3,1.34,3,3l0,0c0,1.66-1.351,3-3,3l0,0
							C256.34,285,255,283.66,255,282z M240,282c0-1.66,1.34-3,3-3l0,0c1.66,0,3,1.34,3,3l0,0c0,1.66-1.34,3-3,3l0,0
							C241.34,285,240,283.66,240,282z M225,282c0-1.66,1.34-3,3-3l0,0c1.649,0,3,1.34,3,3l0,0c0,1.66-1.351,3-3,3l0,0
							C226.34,285,225,283.66,225,282z M210,282c0-1.66,1.34-3,3-3l0,0c1.66,0,3,1.34,3,3l0,0c0,1.66-1.34,3-3,3l0,0
							C211.34,285,210,283.66,210,282z M195,282c0-1.66,1.34-3,3-3l0,0c1.649,0,3,1.34,3,3l0,0c0,1.66-1.351,3-3,3l0,0
							C196.34,285,195,283.66,195,282z M180,282c0-1.66,1.34-3,3-3l0,0c1.649,0,3,1.34,3,3l0,0c0,1.66-1.351,3-3,3l0,0
							C181.34,285,180,283.66,180,282z M165,282c0-1.66,1.34-3,3-3l0,0c1.66,0,3,1.34,3,3l0,0c0,1.66-1.34,3-3,3l0,0
							C166.34,285,165,283.66,165,282z M150,282c0-1.66,1.34-3,3-3l0,0c1.649,0,3,1.34,3,3l0,0c0,1.66-1.351,3-3,3l0,0
							C151.34,285,150,283.66,150,282z M135,282c0-1.66,1.34-3,3-3l0,0c1.66,0,3,1.34,3,3l0,0c0,1.66-1.34,3-3,3l0,0
							C136.34,285,135,283.66,135,282z M120,282c0-1.66,1.34-3,3-3l0,0c1.649,0,3,1.34,3,3l0,0c0,1.66-1.351,3-3,3l0,0
							C121.34,285,120,283.66,120,282z M105,282c0-1.66,1.34-3,3-3l0,0c1.66,0,3,1.34,3,3l0,0c0,1.66-1.34,3-3,3l0,0
							C106.34,285,105,283.66,105,282z M90,282c0-1.66,1.34-3,3-3l0,0c1.66,0,3,1.34,3,3l0,0c0,1.66-1.34,3-3,3l0,0
							C91.34,285,90,283.66,90,282z M75,282c0-1.66,1.34-3,3-3l0,0c1.649,0,3,1.34,3,3l0,0c0,1.66-1.351,3-3,3l0,0
							C76.34,285,75,283.66,75,282z M60,282c0-1.66,1.34-3,3-3l0,0c1.66,0,3,1.34,3,3l0,0c0,1.66-1.34,3-3,3l0,0
							C61.34,285,60,283.66,60,282z M45,282c0-1.66,1.34-3,3-3l0,0c1.649,0,3,1.34,3,3l0,0c0,1.66-1.351,3-3,3l0,0
							C46.34,285,45,283.66,45,282z M30,282c0-1.66,1.34-3,3-3l0,0c1.66,0,3,1.34,3,3l0,0c0,1.66-1.34,3-3,3l0,0
							C31.34,285,30,283.66,30,282z M15,282c0-1.66,1.34-3,3-3l0,0c1.66,0,3,1.34,3,3l0,0c0,1.66-1.34,3-3,3l0,0
							C16.34,285,15,283.66,15,282z M0,282c0-1.66,1.34-3,3-3l0,0c1.66,0,3,1.34,3,3l0,0c0,1.66-1.34,3-3,3l0,0
							C1.34,285,0,283.66,0,282z"/>
					</g>
				</g>
				<g>
					<g>
						<path style="fill:#F6345A;" d="M270,296.5c0-1.66,1.34-3,3-3l0,0c1.66,0,3,1.34,3,3l0,0c0,1.66-1.34,3-3,3l0,0
							C271.34,299.5,270,298.16,270,296.5z M255,296.5c0-1.66,1.34-3,3-3l0,0c1.649,0,3,1.34,3,3l0,0c0,1.66-1.351,3-3,3l0,0
							C256.34,299.5,255,298.16,255,296.5z M240,296.5c0-1.66,1.34-3,3-3l0,0c1.66,0,3,1.34,3,3l0,0c0,1.66-1.34,3-3,3l0,0
							C241.34,299.5,240,298.16,240,296.5z M225,296.5c0-1.66,1.34-3,3-3l0,0c1.649,0,3,1.34,3,3l0,0c0,1.66-1.351,3-3,3l0,0
							C226.34,299.5,225,298.16,225,296.5z M210,296.5c0-1.66,1.34-3,3-3l0,0c1.66,0,3,1.34,3,3l0,0c0,1.66-1.34,3-3,3l0,0
							C211.34,299.5,210,298.16,210,296.5z M195,296.5c0-1.66,1.34-3,3-3l0,0c1.649,0,3,1.34,3,3l0,0c0,1.66-1.351,3-3,3l0,0
							C196.34,299.5,195,298.16,195,296.5z M180,296.5c0-1.66,1.34-3,3-3l0,0c1.649,0,3,1.34,3,3l0,0c0,1.66-1.351,3-3,3l0,0
							C181.34,299.5,180,298.16,180,296.5z M165,296.5c0-1.66,1.34-3,3-3l0,0c1.66,0,3,1.34,3,3l0,0c0,1.66-1.34,3-3,3l0,0
							C166.34,299.5,165,298.16,165,296.5z M150,296.5c0-1.66,1.34-3,3-3l0,0c1.649,0,3,1.34,3,3l0,0c0,1.66-1.351,3-3,3l0,0
							C151.34,299.5,150,298.16,150,296.5z M135,296.5c0-1.66,1.34-3,3-3l0,0c1.66,0,3,1.34,3,3l0,0c0,1.66-1.34,3-3,3l0,0
							C136.34,299.5,135,298.16,135,296.5z M120,296.5c0-1.66,1.34-3,3-3l0,0c1.649,0,3,1.34,3,3l0,0c0,1.66-1.351,3-3,3l0,0
							C121.34,299.5,120,298.16,120,296.5z M105,296.5c0-1.66,1.34-3,3-3l0,0c1.66,0,3,1.34,3,3l0,0c0,1.66-1.34,3-3,3l0,0
							C106.34,299.5,105,298.16,105,296.5z M90,296.5c0-1.66,1.34-3,3-3l0,0c1.66,0,3,1.34,3,3l0,0c0,1.66-1.34,3-3,3l0,0
							C91.34,299.5,90,298.16,90,296.5z M75,296.5c0-1.66,1.34-3,3-3l0,0c1.649,0,3,1.34,3,3l0,0c0,1.66-1.351,3-3,3l0,0
							C76.34,299.5,75,298.16,75,296.5z M60,296.5c0-1.66,1.34-3,3-3l0,0c1.66,0,3,1.34,3,3l0,0c0,1.66-1.34,3-3,3l0,0
							C61.34,299.5,60,298.16,60,296.5z M45,296.5c0-1.66,1.34-3,3-3l0,0c1.649,0,3,1.34,3,3l0,0c0,1.66-1.351,3-3,3l0,0
							C46.34,299.5,45,298.16,45,296.5z M30,296.5c0-1.66,1.34-3,3-3l0,0c1.66,0,3,1.34,3,3l0,0c0,1.66-1.34,3-3,3l0,0
							C31.34,299.5,30,298.16,30,296.5z M15,296.5c0-1.66,1.34-3,3-3l0,0c1.66,0,3,1.34,3,3l0,0c0,1.66-1.34,3-3,3l0,0
							C16.34,299.5,15,298.16,15,296.5z M0,296.5c0-1.66,1.34-3,3-3l0,0c1.66,0,3,1.34,3,3l0,0c0,1.66-1.34,3-3,3l0,0
							C1.34,299.5,0,298.16,0,296.5z"/>
					</g>
				</g>
				<g>
					<g>
						<path style="fill:#F6345A;" d="M270,311c0-1.66,1.34-3,3-3l0,0c1.66,0,3,1.34,3,3l0,0c0,1.66-1.34,3-3,3l0,0
							C271.34,314,270,312.66,270,311z M255,311c0-1.66,1.34-3,3-3l0,0c1.649,0,3,1.34,3,3l0,0c0,1.66-1.351,3-3,3l0,0
							C256.34,314,255,312.66,255,311z M240,311c0-1.66,1.34-3,3-3l0,0c1.66,0,3,1.34,3,3l0,0c0,1.66-1.34,3-3,3l0,0
							C241.34,314,240,312.66,240,311z M225,311c0-1.66,1.34-3,3-3l0,0c1.649,0,3,1.34,3,3l0,0c0,1.66-1.351,3-3,3l0,0
							C226.34,314,225,312.66,225,311z M210,311c0-1.66,1.34-3,3-3l0,0c1.66,0,3,1.34,3,3l0,0c0,1.66-1.34,3-3,3l0,0
							C211.34,314,210,312.66,210,311z M195,311c0-1.66,1.34-3,3-3l0,0c1.649,0,3,1.34,3,3l0,0c0,1.66-1.351,3-3,3l0,0
							C196.34,314,195,312.66,195,311z M180,311c0-1.66,1.34-3,3-3l0,0c1.649,0,3,1.34,3,3l0,0c0,1.66-1.351,3-3,3l0,0
							C181.34,314,180,312.66,180,311z M165,311c0-1.66,1.34-3,3-3l0,0c1.66,0,3,1.34,3,3l0,0c0,1.66-1.34,3-3,3l0,0
							C166.34,314,165,312.66,165,311z M150,311c0-1.66,1.34-3,3-3l0,0c1.649,0,3,1.34,3,3l0,0c0,1.66-1.351,3-3,3l0,0
							C151.34,314,150,312.66,150,311z M135,311c0-1.66,1.34-3,3-3l0,0c1.66,0,3,1.34,3,3l0,0c0,1.66-1.34,3-3,3l0,0
							C136.34,314,135,312.66,135,311z M120,311c0-1.66,1.34-3,3-3l0,0c1.649,0,3,1.34,3,3l0,0c0,1.66-1.351,3-3,3l0,0
							C121.34,314,120,312.66,120,311z M105,311c0-1.66,1.34-3,3-3l0,0c1.66,0,3,1.34,3,3l0,0c0,1.66-1.34,3-3,3l0,0
							C106.34,314,105,312.66,105,311z M90,311c0-1.66,1.34-3,3-3l0,0c1.66,0,3,1.34,3,3l0,0c0,1.66-1.34,3-3,3l0,0
							C91.34,314,90,312.66,90,311z M75,311c0-1.66,1.34-3,3-3l0,0c1.649,0,3,1.34,3,3l0,0c0,1.66-1.351,3-3,3l0,0
							C76.34,314,75,312.66,75,311z M60,311c0-1.66,1.34-3,3-3l0,0c1.66,0,3,1.34,3,3l0,0c0,1.66-1.34,3-3,3l0,0
							C61.34,314,60,312.66,60,311z M45,311c0-1.66,1.34-3,3-3l0,0c1.649,0,3,1.34,3,3l0,0c0,1.66-1.351,3-3,3l0,0
							C46.34,314,45,312.66,45,311z M30,311c0-1.66,1.34-3,3-3l0,0c1.66,0,3,1.34,3,3l0,0c0,1.66-1.34,3-3,3l0,0
							C31.34,314,30,312.66,30,311z M15,311c0-1.66,1.34-3,3-3l0,0c1.66,0,3,1.34,3,3l0,0c0,1.66-1.34,3-3,3l0,0
							C16.34,314,15,312.66,15,311z M0,311c0-1.66,1.34-3,3-3l0,0c1.66,0,3,1.34,3,3l0,0c0,1.66-1.34,3-3,3l0,0
							C1.34,314,0,312.66,0,311z"/>
					</g>
				</g>
				<g>
					<g>
						<path style="fill:#F6345A;" d="M270,325.5c0-1.66,1.34-3,3-3l0,0c1.66,0,3,1.34,3,3l0,0c0,1.66-1.34,3-3,3l0,0
							C271.34,328.5,270,327.16,270,325.5z M255,325.5c0-1.66,1.34-3,3-3l0,0c1.649,0,3,1.34,3,3l0,0c0,1.66-1.351,3-3,3l0,0
							C256.34,328.5,255,327.16,255,325.5z M240,325.5c0-1.66,1.34-3,3-3l0,0c1.66,0,3,1.34,3,3l0,0c0,1.66-1.34,3-3,3l0,0
							C241.34,328.5,240,327.16,240,325.5z M225,325.5c0-1.66,1.34-3,3-3l0,0c1.649,0,3,1.34,3,3l0,0c0,1.66-1.351,3-3,3l0,0
							C226.34,328.5,225,327.16,225,325.5z M210,325.5c0-1.66,1.34-3,3-3l0,0c1.66,0,3,1.34,3,3l0,0c0,1.66-1.34,3-3,3l0,0
							C211.34,328.5,210,327.16,210,325.5z M195,325.5c0-1.66,1.34-3,3-3l0,0c1.649,0,3,1.34,3,3l0,0c0,1.66-1.351,3-3,3l0,0
							C196.34,328.5,195,327.16,195,325.5z M180,325.5c0-1.66,1.34-3,3-3l0,0c1.649,0,3,1.34,3,3l0,0c0,1.66-1.351,3-3,3l0,0
							C181.34,328.5,180,327.16,180,325.5z M165,325.5c0-1.66,1.34-3,3-3l0,0c1.66,0,3,1.34,3,3l0,0c0,1.66-1.34,3-3,3l0,0
							C166.34,328.5,165,327.16,165,325.5z M150,325.5c0-1.66,1.34-3,3-3l0,0c1.649,0,3,1.34,3,3l0,0c0,1.66-1.351,3-3,3l0,0
							C151.34,328.5,150,327.16,150,325.5z M135,325.5c0-1.66,1.34-3,3-3l0,0c1.66,0,3,1.34,3,3l0,0c0,1.66-1.34,3-3,3l0,0
							C136.34,328.5,135,327.16,135,325.5z M120,325.5c0-1.66,1.34-3,3-3l0,0c1.649,0,3,1.34,3,3l0,0c0,1.66-1.351,3-3,3l0,0
							C121.34,328.5,120,327.16,120,325.5z M105,325.5c0-1.66,1.34-3,3-3l0,0c1.66,0,3,1.34,3,3l0,0c0,1.66-1.34,3-3,3l0,0
							C106.34,328.5,105,327.16,105,325.5z M90,325.5c0-1.66,1.34-3,3-3l0,0c1.66,0,3,1.34,3,3l0,0c0,1.66-1.34,3-3,3l0,0
							C91.34,328.5,90,327.16,90,325.5z M75,325.5c0-1.66,1.34-3,3-3l0,0c1.649,0,3,1.34,3,3l0,0c0,1.66-1.351,3-3,3l0,0
							C76.34,328.5,75,327.16,75,325.5z M60,325.5c0-1.66,1.34-3,3-3l0,0c1.66,0,3,1.34,3,3l0,0c0,1.66-1.34,3-3,3l0,0
							C61.34,328.5,60,327.16,60,325.5z M45,325.5c0-1.66,1.34-3,3-3l0,0c1.649,0,3,1.34,3,3l0,0c0,1.66-1.351,3-3,3l0,0
							C46.34,328.5,45,327.16,45,325.5z M30,325.5c0-1.66,1.34-3,3-3l0,0c1.66,0,3,1.34,3,3l0,0c0,1.66-1.34,3-3,3l0,0
							C31.34,328.5,30,327.16,30,325.5z M15,325.5c0-1.66,1.34-3,3-3l0,0c1.66,0,3,1.34,3,3l0,0c0,1.66-1.34,3-3,3l0,0
							C16.34,328.5,15,327.16,15,325.5z M0,325.5c0-1.66,1.34-3,3-3l0,0c1.66,0,3,1.34,3,3l0,0c0,1.66-1.34,3-3,3l0,0
							C1.34,328.5,0,327.16,0,325.5z"/>
					</g>
				</g>
				<g>
					<g>
						<path style="fill:#F6345A;" d="M270,340c0-1.66,1.34-3,3-3l0,0c1.66,0,3,1.34,3,3l0,0c0,1.66-1.34,3-3,3l0,0
							C271.34,343,270,341.66,270,340z M255,340c0-1.66,1.34-3,3-3l0,0c1.649,0,3,1.34,3,3l0,0c0,1.66-1.351,3-3,3l0,0
							C256.34,343,255,341.66,255,340z M240,340c0-1.66,1.34-3,3-3l0,0c1.66,0,3,1.34,3,3l0,0c0,1.66-1.34,3-3,3l0,0
							C241.34,343,240,341.66,240,340z M225,340c0-1.66,1.34-3,3-3l0,0c1.649,0,3,1.34,3,3l0,0c0,1.66-1.351,3-3,3l0,0
							C226.34,343,225,341.66,225,340z M210,340c0-1.66,1.34-3,3-3l0,0c1.66,0,3,1.34,3,3l0,0c0,1.66-1.34,3-3,3l0,0
							C211.34,343,210,341.66,210,340z M195,340c0-1.66,1.34-3,3-3l0,0c1.649,0,3,1.34,3,3l0,0c0,1.66-1.351,3-3,3l0,0
							C196.34,343,195,341.66,195,340z M180,340c0-1.66,1.34-3,3-3l0,0c1.649,0,3,1.34,3,3l0,0c0,1.66-1.351,3-3,3l0,0
							C181.34,343,180,341.66,180,340z M165,340c0-1.66,1.34-3,3-3l0,0c1.66,0,3,1.34,3,3l0,0c0,1.66-1.34,3-3,3l0,0
							C166.34,343,165,341.66,165,340z M150,340c0-1.66,1.34-3,3-3l0,0c1.649,0,3,1.34,3,3l0,0c0,1.66-1.351,3-3,3l0,0
							C151.34,343,150,341.66,150,340z M135,340c0-1.66,1.34-3,3-3l0,0c1.66,0,3,1.34,3,3l0,0c0,1.66-1.34,3-3,3l0,0
							C136.34,343,135,341.66,135,340z M120,340c0-1.66,1.34-3,3-3l0,0c1.649,0,3,1.34,3,3l0,0c0,1.66-1.351,3-3,3l0,0
							C121.34,343,120,341.66,120,340z M105,340c0-1.66,1.34-3,3-3l0,0c1.66,0,3,1.34,3,3l0,0c0,1.66-1.34,3-3,3l0,0
							C106.34,343,105,341.66,105,340z M90,340c0-1.66,1.34-3,3-3l0,0c1.66,0,3,1.34,3,3l0,0c0,1.66-1.34,3-3,3l0,0
							C91.34,343,90,341.66,90,340z M75,340c0-1.66,1.34-3,3-3l0,0c1.649,0,3,1.34,3,3l0,0c0,1.66-1.351,3-3,3l0,0
							C76.34,343,75,341.66,75,340z M60,340c0-1.66,1.34-3,3-3l0,0c1.66,0,3,1.34,3,3l0,0c0,1.66-1.34,3-3,3l0,0
							C61.34,343,60,341.66,60,340z M45,340c0-1.66,1.34-3,3-3l0,0c1.649,0,3,1.34,3,3l0,0c0,1.66-1.351,3-3,3l0,0
							C46.34,343,45,341.66,45,340z M30,340c0-1.66,1.34-3,3-3l0,0c1.66,0,3,1.34,3,3l0,0c0,1.66-1.34,3-3,3l0,0
							C31.34,343,30,341.66,30,340z M15,340c0-1.66,1.34-3,3-3l0,0c1.66,0,3,1.34,3,3l0,0c0,1.66-1.34,3-3,3l0,0
							C16.34,343,15,341.66,15,340z M0,340c0-1.66,1.34-3,3-3l0,0c1.66,0,3,1.34,3,3l0,0c0,1.66-1.34,3-3,3l0,0
							C1.34,343,0,341.66,0,340z"/>
					</g>
				</g>
			</g>
			<g>
				<g>
					<polygon style="fill:#4AD6D5;" points="414.981,58.7 391.091,58.7 340,0 363.889,0 					"/>
				</g>
				<g>
					<polygon style="fill:#4AD6D5;" points="458.21,58.7 434.32,58.7 383.229,0 407.118,0 					"/>
				</g>
				<g>
					<polygon style="fill:#4AD6D5;" points="501.438,58.7 477.549,58.7 426.457,0 450.347,0 					"/>
				</g>
				<g>
					<polygon style="fill:#4AD6D5;" points="544.667,58.7 520.777,58.7 469.686,0 493.575,0 					"/>
				</g>
			</g>
			<g>
				<g>
					<path style="fill:#4AD6D5;" d="M649.122,276.76v-30.165c0-4.882-2.605-9.393-6.833-11.835l-26.123-15.082
						c-4.228-2.441-9.437-2.441-13.665,0l-26.123,15.082c-4.228,2.441-6.833,6.952-6.833,11.835v30.165
						c0,4.882,2.605,9.393,6.833,11.835l26.123,15.082c4.228,2.441,9.437,2.441,13.665,0l26.123-15.082
						C646.517,286.154,649.122,281.643,649.122,276.76z"/>
				</g>
				<g>
					<path style="fill:#4AD6D5;" d="M609.333,317.455c-3.066,0-6.133-0.789-8.868-2.369l-32.95-19.023
						c-5.471-3.158-8.869-9.044-8.869-15.36v-38.048c0-6.316,3.398-12.202,8.869-15.361l32.95-19.024
						c5.472-3.158,12.268-3.157,17.737,0l32.95,19.024c5.47,3.158,8.868,9.044,8.868,15.361v38.048
						c0,6.316-3.398,12.202-8.868,15.36l-32.95,19.023C615.467,316.666,612.4,317.455,609.333,317.455z M609.334,206.9
						c-2.894,0-5.788,0.745-8.369,2.235l-32.95,19.024c-5.162,2.98-8.369,8.535-8.369,14.495v38.048
						c0,5.96,3.207,11.515,8.369,14.495l32.95,19.023c5.161,2.98,11.574,2.981,16.737,0l32.95-19.023
						c5.162-2.98,8.368-8.534,8.368-14.495v-38.048c0-5.96-3.206-11.515-8.368-14.495l-32.95-19.024
						C615.121,207.645,612.227,206.9,609.334,206.9z"/>
				</g>
			</g>
			<g>
				<g>
					<g>
						<rect y="176.502" style="fill:#FFDE4A;" width="33.5" height="33.5"/>
					</g>
					<g>
						<rect x="43.632" y="191.302" style="fill:#FFDE4A;" width="18.701" height="18.7"/>
					</g>
					<g>
						<rect x="72.25" y="176.502" style="fill:#FFDE4A;" width="33.5" height="33.5"/>
					</g>
					<g>
						<rect x="115.882" y="191.302" style="fill:#FFDE4A;" width="18.701" height="18.7"/>
					</g>
					<g>
						<rect x="567.912" y="131.376" style="fill:#FFDE4A;" width="18.7" height="18.701"/>
					</g>
					<g>
						<rect x="302.254" y="372.634" style="fill:#FFDE4A;" width="18.701" height="18.701"/>
					</g>
					<g>
						<rect x="302.254" y="337.725" style="fill:#FFDE4A;" width="18.701" height="18.701"/>
					</g>
				</g>
				<g>
					<g>
						
							<rect x="101.083" y="220.261" transform="matrix(-1 -1.224647e-16 1.224647e-16 -1 235.6658 474.0216)" style="fill:#FFDE4A;" width="33.5" height="33.5"/>
					</g>
					<g>
						
							<rect x="72.25" y="220.261" transform="matrix(-1 -1.224647e-16 1.224647e-16 -1 163.2005 459.222)" style="fill:#FFDE4A;" width="18.701" height="18.7"/>
					</g>
					<g>
						
							<rect x="28.833" y="220.261" transform="matrix(-1 -1.224647e-16 1.224647e-16 -1 91.1658 474.0216)" style="fill:#FFDE4A;" width="33.5" height="33.5"/>
					</g>
					<g>
						
							<rect y="220.261" transform="matrix(-1 -1.224647e-16 1.224647e-16 -1 18.7005 459.222)" style="fill:#FFDE4A;" width="18.701" height="18.7"/>
					</g>
				</g>
			</g>
			<g>
				<g>
					<g>
						<g>
							<g>
								<g>
									<path style="fill:#BCBCBC;" d="M494.313,471.511l-16.388-8.158l-16.077,8l-16.074-8l-16.074,8l-16.072-8l-16.074,8
										l-15.073-7.503v-3.351l15.073,7.502l16.074-8l16.072,8l16.074-8l16.074,8l16.077-8l16.388,8.158V471.511z M445.773,462.235
										l16.074,8l16.077-8l15.388,7.66v-1.117l-15.388-7.66l-16.077,8l-16.074-8l-16.074,8l-16.072-8l-16.074,8l-14.073-7.004
										v1.116l14.073,7.005l16.074-8l16.072,8L445.773,462.235z"/>
								</g>
							</g>
						</g>
					</g>
				</g>
				<g>
					<g>
						<g>
							<g>
								<g>
									<path style="fill:#BCBCBC;" d="M494.313,480.603l-16.388-8.157l-16.077,8l-16.074-8l-16.074,8l-16.072-8l-16.074,8
										l-15.073-7.503v-3.352l15.073,7.503l16.074-8l16.072,8l16.074-8l16.074,8l16.077-8l16.388,8.157V480.603z M445.773,471.328
										l16.074,8l16.077-8l15.388,7.659v-1.117l-15.388-7.659l-16.077,8l-16.074-8l-16.074,8l-16.072-8l-16.074,8l-14.073-7.005
										v1.117l14.073,7.005l16.074-8l16.072,8L445.773,471.328z"/>
								</g>
							</g>
						</g>
					</g>
				</g>
				<g>
					<g>
						<g>
							<g>
								<g>
									<path style="fill:#BCBCBC;" d="M494.313,489.694l-16.388-8.157l-16.077,8l-16.074-8l-16.074,8l-16.072-8l-16.074,8
										l-15.073-7.503v-3.352l15.073,7.503l16.074-8l16.072,8l16.074-8l16.074,8l16.077-8l16.388,8.157V489.694z M445.773,480.42
										l16.074,8l16.077-8l15.388,7.659v-1.117l-15.388-7.659l-16.077,8l-16.074-8l-16.074,8l-16.072-8l-16.074,8l-14.073-7.005
										v1.117l14.073,7.005l16.074-8l16.072,8L445.773,480.42z"/>
								</g>
							</g>
						</g>
					</g>
				</g>
			</g>
			<g>
				<polygon style="fill:#DDDDDD;" points="532.569,372.602 497.738,432.931 567.4,432.931 				"/>
			</g>
			<g>
				<polygon style="fill:#4AD6D5;" points="566.569,374.431 586.448,340 546.69,340 				"/>
			</g>
			<g>
				<polygon style="fill:#DDDDDD;" points="38.125,120.28 23.268,146.013 52.983,146.013 				"/>
			</g>
			<g>
				<polygon style="fill:#F6345A;" points="84.395,127.763 113.541,77.279 55.248,77.279 				"/>
			</g>
			<g>
				<polygon style="fill:#F6345A;" points="625.612,359.862 659.521,379.439 659.521,340.285 				"/>
			</g>
			<g>
				<polygon style="fill:#F6345A;" points="181.612,190.862 215.521,210.439 215.521,171.285 				"/>
			</g>
			<g>
				<g>
					<path style="fill:#BCBCBC;" d="M715.229,6.375c-16.151,0-29.244,13.093-29.244,29.243c0,16.151,13.093,29.244,29.244,29.244
						c16.151,0,29.244-13.093,29.244-29.244C744.473,19.467,731.38,6.375,715.229,6.375z M715.229,52.528
						c-9.339,0-16.91-7.571-16.91-16.91c0-9.339,7.571-16.91,16.91-16.91c9.339,0,16.91,7.571,16.91,16.91
						C732.139,44.957,724.569,52.528,715.229,52.528z"/>
				</g>
				<g>
					<g>
						<path style="fill:#F6345A;" d="M715.229,180.767c0.902,0,1.63,0.728,1.63,1.631l0,0c0,0.902-0.728,1.63-1.63,1.63l0,0
							c-0.902,0-1.63-0.728-1.63-1.63l0,0C713.599,181.496,714.327,180.767,715.229,180.767z M715.229,172.615
							c0.902,0,1.63,0.728,1.63,1.63l0,0c0,0.896-0.728,1.63-1.63,1.63l0,0c-0.902,0-1.63-0.734-1.63-1.63l0,0
							C713.599,173.343,714.327,172.615,715.229,172.615z M715.229,164.463c0.902,0,1.63,0.728,1.63,1.63l0,0
							c0,0.902-0.728,1.63-1.63,1.63l0,0c-0.902,0-1.63-0.728-1.63-1.63l0,0C713.599,165.191,714.327,164.463,715.229,164.463z
							 M715.229,156.311c0.902,0,1.63,0.728,1.63,1.63l0,0c0,0.896-0.728,1.63-1.63,1.63l0,0c-0.902,0-1.63-0.734-1.63-1.63l0,0
							C713.599,157.039,714.327,156.311,715.229,156.311z M715.229,148.159c0.902,0,1.63,0.728,1.63,1.63l0,0
							c0,0.902-0.728,1.63-1.63,1.63l0,0c-0.902,0-1.63-0.728-1.63-1.63l0,0C713.599,148.887,714.327,148.159,715.229,148.159z
							 M715.229,140.007c0.902,0,1.63,0.728,1.63,1.63l0,0c0,0.896-0.728,1.63-1.63,1.63l0,0c-0.902,0-1.63-0.734-1.63-1.63l0,0
							C713.599,140.735,714.327,140.007,715.229,140.007z M715.229,131.854c0.902,0,1.63,0.728,1.63,1.63l0,0
							c0,0.896-0.728,1.63-1.63,1.63l0,0c-0.902,0-1.63-0.734-1.63-1.63l0,0C713.599,132.583,714.327,131.854,715.229,131.854z
							 M715.229,123.702c0.902,0,1.63,0.728,1.63,1.631l0,0c0,0.902-0.728,1.63-1.63,1.63l0,0c-0.902,0-1.63-0.728-1.63-1.63l0,0
							C713.599,124.43,714.327,123.702,715.229,123.702z M715.229,115.55c0.902,0,1.63,0.728,1.63,1.63l0,0
							c0,0.896-0.728,1.63-1.63,1.63l0,0c-0.902,0-1.63-0.734-1.63-1.63l0,0C713.599,116.278,714.327,115.55,715.229,115.55z
							 M715.229,107.398c0.902,0,1.63,0.728,1.63,1.63l0,0c0,0.902-0.728,1.63-1.63,1.63l0,0c-0.902,0-1.63-0.728-1.63-1.63l0,0
							C713.599,108.126,714.327,107.398,715.229,107.398z M715.229,99.246c0.902,0,1.63,0.728,1.63,1.63l0,0
							c0,0.896-0.728,1.63-1.63,1.63l0,0c-0.902,0-1.63-0.734-1.63-1.63l0,0C713.599,99.974,714.327,99.246,715.229,99.246z
							 M715.229,91.094c0.902,0,1.63,0.728,1.63,1.63l0,0c0,0.902-0.728,1.63-1.63,1.63l0,0c-0.902,0-1.63-0.728-1.63-1.63l0,0
							C713.599,91.822,714.327,91.094,715.229,91.094z M715.229,82.941c0.902,0,1.63,0.728,1.63,1.631l0,0
							c0,0.902-0.728,1.63-1.63,1.63l0,0c-0.902,0-1.63-0.728-1.63-1.63l0,0C713.599,83.67,714.327,82.941,715.229,82.941z
							 M715.229,74.789c0.902,0,1.63,0.728,1.63,1.63l0,0c0,0.896-0.728,1.63-1.63,1.63l0,0c-0.902,0-1.63-0.734-1.63-1.63l0,0
							C713.599,75.517,714.327,74.789,715.229,74.789z M715.229,66.637c0.902,0,1.63,0.728,1.63,1.63l0,0
							c0,0.902-0.728,1.631-1.63,1.631l0,0c-0.902,0-1.63-0.728-1.63-1.631l0,0C713.599,67.365,714.327,66.637,715.229,66.637z
							 M715.229,58.485c0.902,0,1.63,0.728,1.63,1.631l0,0c0,0.896-0.728,1.63-1.63,1.63l0,0c-0.902,0-1.63-0.734-1.63-1.63l0,0
							C713.599,59.213,714.327,58.485,715.229,58.485z M715.229,50.333c0.902,0,1.63,0.728,1.63,1.63l0,0
							c0,0.902-0.728,1.63-1.63,1.63l0,0c-0.902,0-1.63-0.728-1.63-1.63l0,0C713.599,51.061,714.327,50.333,715.229,50.333z
							 M715.229,42.181c0.902,0,1.63,0.728,1.63,1.63l0,0c0,0.902-0.728,1.63-1.63,1.63l0,0c-0.902,0-1.63-0.728-1.63-1.63l0,0
							C713.599,42.909,714.327,42.181,715.229,42.181z M715.229,34.028c0.902,0,1.63,0.728,1.63,1.63l0,0
							c0,0.902-0.728,1.631-1.63,1.631l0,0c-0.902,0-1.63-0.728-1.63-1.631l0,0C713.599,34.757,714.327,34.028,715.229,34.028z"/>
					</g>
				</g>
				<g>
					<g>
						<path style="fill:#4AD6D5;" d="M731,487.065c0.902,0,1.63,0.728,1.63,1.631l0,0c0,0.902-0.728,1.63-1.63,1.63l0,0
							c-0.902,0-1.63-0.728-1.63-1.63l0,0C729.37,487.793,730.098,487.065,731,487.065z M731,478.913c0.902,0,1.63,0.728,1.63,1.63
							l0,0c0,0.896-0.728,1.63-1.63,1.63l0,0c-0.902,0-1.63-0.734-1.63-1.63l0,0C729.37,479.641,730.098,478.913,731,478.913z
							 M731,470.761c0.902,0,1.63,0.728,1.63,1.63l0,0c0,0.902-0.728,1.63-1.63,1.63l0,0c-0.902,0-1.63-0.728-1.63-1.63l0,0
							C729.37,471.489,730.098,470.761,731,470.761z M731,462.609c0.902,0,1.63,0.728,1.63,1.63l0,0c0,0.896-0.728,1.63-1.63,1.63
							l0,0c-0.902,0-1.63-0.734-1.63-1.63l0,0C729.37,463.337,730.098,462.609,731,462.609z M731,454.457
							c0.902,0,1.63,0.728,1.63,1.63l0,0c0,0.902-0.728,1.63-1.63,1.63l0,0c-0.902,0-1.63-0.728-1.63-1.63l0,0
							C729.37,455.185,730.098,454.457,731,454.457z M731,446.304c0.902,0,1.63,0.728,1.63,1.631l0,0c0,0.896-0.728,1.63-1.63,1.63
							l0,0c-0.902,0-1.63-0.734-1.63-1.63l0,0C729.37,447.033,730.098,446.304,731,446.304z M731,438.152
							c0.902,0,1.63,0.728,1.63,1.63l0,0c0,0.896-0.728,1.63-1.63,1.63l0,0c-0.902,0-1.63-0.734-1.63-1.63l0,0
							C729.37,438.88,730.098,438.152,731,438.152z M731,430c0.902,0,1.63,0.728,1.63,1.63l0,0c0,0.902-0.728,1.63-1.63,1.63l0,0
							c-0.902,0-1.63-0.728-1.63-1.63l0,0C729.37,430.728,730.098,430,731,430z M731,421.848c0.902,0,1.63,0.728,1.63,1.63l0,0
							c0,0.896-0.728,1.63-1.63,1.63l0,0c-0.902,0-1.63-0.734-1.63-1.63l0,0C729.37,422.576,730.098,421.848,731,421.848z
							 M731,413.696c0.902,0,1.63,0.728,1.63,1.63l0,0c0,0.902-0.728,1.63-1.63,1.63l0,0c-0.902,0-1.63-0.728-1.63-1.63l0,0
							C729.37,414.424,730.098,413.696,731,413.696z M731,405.543c0.902,0,1.63,0.728,1.63,1.63l0,0c0,0.896-0.728,1.63-1.63,1.63
							l0,0c-0.902,0-1.63-0.734-1.63-1.63l0,0C729.37,406.272,730.098,405.543,731,405.543z M731,397.391
							c0.902,0,1.63,0.728,1.63,1.63l0,0c0,0.902-0.728,1.63-1.63,1.63l0,0c-0.902,0-1.63-0.728-1.63-1.63l0,0
							C729.37,398.12,730.098,397.391,731,397.391z M731,389.239c0.902,0,1.63,0.728,1.63,1.63l0,0c0,0.902-0.728,1.63-1.63,1.63
							l0,0c-0.902,0-1.63-0.728-1.63-1.63l0,0C729.37,389.967,730.098,389.239,731,389.239z M731,381.087
							c0.902,0,1.63,0.728,1.63,1.63l0,0c0,0.896-0.728,1.63-1.63,1.63l0,0c-0.902,0-1.63-0.734-1.63-1.63l0,0
							C729.37,381.815,730.098,381.087,731,381.087z M731,372.935c0.902,0,1.63,0.728,1.63,1.63l0,0c0,0.902-0.728,1.631-1.63,1.631
							l0,0c-0.902,0-1.63-0.728-1.63-1.631l0,0C729.37,373.663,730.098,372.935,731,372.935z M731,364.783
							c0.902,0,1.63,0.728,1.63,1.63l0,0c0,0.897-0.728,1.63-1.63,1.63l0,0c-0.902,0-1.63-0.734-1.63-1.63l0,0
							C729.37,365.511,730.098,364.783,731,364.783z M731,356.63c0.902,0,1.63,0.728,1.63,1.63l0,0c0,0.902-0.728,1.63-1.63,1.63
							l0,0c-0.902,0-1.63-0.728-1.63-1.63l0,0C729.37,357.359,730.098,356.63,731,356.63z M731,348.478
							c0.902,0,1.63,0.728,1.63,1.63l0,0c0,0.902-0.728,1.63-1.63,1.63l0,0c-0.902,0-1.63-0.728-1.63-1.63l0,0
							C729.37,349.206,730.098,348.478,731,348.478z M731,340.326c0.902,0,1.63,0.728,1.63,1.63l0,0c0,0.902-0.728,1.63-1.63,1.63
							l0,0c-0.902,0-1.63-0.728-1.63-1.63l0,0C729.37,341.054,730.098,340.326,731,340.326z"/>
					</g>
				</g>
			</g>
			<g>
				<g>
					<path style="fill:#FFDE4A;" d="M344.139,87.031L344.139,87.031c-1.621,1.621-4.272,1.621-5.893,0l-30.17-30.17
						c-1.62-1.62-1.62-4.272,0-5.893l0,0c1.62-1.62,4.272-1.62,5.893,0l30.17,30.17C345.759,82.759,345.759,85.411,344.139,87.031z"
						/>
				</g>
				<g>
					<path style="fill:#FFDE4A;" d="M308.076,87.031L308.076,87.031c-1.62-1.62-1.62-4.272,0-5.892l30.17-30.17
						c1.621-1.62,4.272-1.62,5.893,0l0,0c1.62,1.62,1.62,4.272,0,5.893l-30.17,30.17C312.348,88.652,309.697,88.652,308.076,87.031z
						"/>
				</g>
			</g>
			<g>
				<g>
					<path style="fill:#FFDE4A;" d="M438.082,415.032L438.082,415.032c-1.102,0-2.004-0.902-2.004-2.004v-20.524
						c0-1.102,0.902-2.004,2.004-2.004l0,0c1.102,0,2.004,0.902,2.004,2.004v20.524C440.086,414.13,439.184,415.032,438.082,415.032
						z"/>
				</g>
				<g>
					<path style="fill:#FFDE4A;" d="M425.816,402.766L425.816,402.766c0-1.102,0.902-2.004,2.004-2.004h20.524
						c1.102,0,2.004,0.902,2.004,2.004l0,0c0,1.102-0.902,2.004-2.004,2.004H427.82C426.718,404.77,425.816,403.868,425.816,402.766
						z"/>
				</g>
			</g>
			<g>
				<g>
					<path style="fill:#DDDDDD;" d="M694.682,308.766L694.682,308.766c-1.102,0-2.004-0.902-2.004-2.004v-20.524
						c0-1.102,0.902-2.004,2.004-2.004l0,0c1.102,0,2.004,0.902,2.004,2.004v20.524
						C696.687,307.864,695.785,308.766,694.682,308.766z"/>
				</g>
				<g>
					<path style="fill:#DDDDDD;" d="M682.416,296.5L682.416,296.5c0-1.102,0.902-2.004,2.004-2.004h20.524
						c1.102,0,2.004,0.902,2.004,2.004l0,0c0,1.102-0.902,2.004-2.004,2.004H684.42C683.318,298.504,682.416,297.602,682.416,296.5z
						"/>
				</g>
			</g>
			<g>
				<g>
					<path style="fill:#DDDDDD;" d="M524.667,315.5c-0.828,0-1.5-0.672-1.5-1.5V203.727c0-0.829,0.672-1.5,1.5-1.5
						s1.5,0.671,1.5,1.5V314C526.167,314.828,525.495,315.5,524.667,315.5z"/>
				</g>
				<g>
					<path style="fill:#DDDDDD;" d="M514,315.5c-0.828,0-1.5-0.672-1.5-1.5v-79.667c0-0.829,0.672-1.5,1.5-1.5
						c0.828,0,1.5,0.671,1.5,1.5V314C515.5,314.828,514.828,315.5,514,315.5z"/>
				</g>
				<g>
					<path style="fill:#DDDDDD;" d="M502.667,315.5c-0.828,0-1.5-0.672-1.5-1.5v-50c0-0.828,0.672-1.5,1.5-1.5s1.5,0.672,1.5,1.5v50
						C504.167,314.828,503.495,315.5,502.667,315.5z"/>
				</g>
			</g>
			<g>
				<g>
					<path style="fill:#DDDDDD;" d="M360.776,432.696c-0.004,0-0.007,0-0.011,0c-25.707-0.195-50.824-0.195-76.787,0
						c-0.004,0-0.008,0-0.012,0c-0.823,0-1.493-0.664-1.5-1.488c-0.006-0.829,0.66-1.506,1.489-1.512
						c25.978-0.195,51.11-0.195,76.832,0c0.829,0.007,1.495,0.683,1.489,1.512C362.27,432.032,361.6,432.696,360.776,432.696z"/>
				</g>
				<g>
					<path style="fill:#DDDDDD;" d="M306.987,422.382c-7.829,0-15.671-0.117-23.308-0.353c-0.828-0.025-1.479-0.717-1.454-1.545
						c0.026-0.828,0.728-1.487,1.545-1.453c15.215,0.468,31.244,0.468,46.353,0c0.833-0.057,1.52,0.625,1.546,1.452
						c0.025,0.828-0.625,1.521-1.453,1.546C322.631,422.265,314.815,422.382,306.987,422.382z"/>
				</g>
				<g>
					<path style="fill:#DDDDDD;" d="M300.503,410.696h-16.602c-0.829,0-1.5-0.672-1.5-1.5c0-0.828,0.671-1.5,1.5-1.5h16.602
						c0.829,0,1.5,0.672,1.5,1.5C302.003,410.024,301.332,410.696,300.503,410.696z"/>
				</g>
			</g>
			<g>
				<g>
					<g>
						<path style="fill:#F6345A;" d="M588.38,484.147c1.337,0,2.416,1.079,2.416,2.416l0,0c0,1.328-1.079,2.416-2.416,2.416l0,0
							c-1.337,0-2.416-1.087-2.416-2.416l0,0C585.964,485.226,587.043,484.147,588.38,484.147z M588.38,472.068
							c1.337,0,2.416,1.079,2.416,2.416l0,0c0,1.337-1.079,2.416-2.416,2.416l0,0c-1.337,0-2.416-1.079-2.416-2.416l0,0
							C585.964,473.147,587.043,472.068,588.38,472.068z M588.38,459.989c1.337,0,2.416,1.079,2.416,2.416l0,0
							c0,1.328-1.079,2.416-2.416,2.416l0,0c-1.337,0-2.416-1.087-2.416-2.416l0,0C585.964,461.068,587.043,459.989,588.38,459.989z
							 M588.38,447.911c1.337,0,2.416,1.079,2.416,2.416l0,0c0,1.337-1.079,2.416-2.416,2.416l0,0c-1.337,0-2.416-1.079-2.416-2.416
							l0,0C585.964,448.99,587.043,447.911,588.38,447.911z M588.38,435.832c1.337,0,2.416,1.079,2.416,2.416l0,0
							c0,1.337-1.079,2.416-2.416,2.416l0,0c-1.337,0-2.416-1.079-2.416-2.416l0,0C585.964,436.911,587.043,435.832,588.38,435.832z
							 M588.38,423.753c1.337,0,2.416,1.079,2.416,2.416l0,0c0,1.337-1.079,2.416-2.416,2.416l0,0c-1.337,0-2.416-1.079-2.416-2.416
							l0,0C585.964,424.832,587.043,423.753,588.38,423.753z"/>
					</g>
				</g>
				<g>
					<g>
						<path style="fill:#F6345A;" d="M601.221,484.147c1.337,0,2.416,1.079,2.416,2.416l0,0c0,1.328-1.079,2.416-2.416,2.416l0,0
							c-1.337,0-2.416-1.087-2.416-2.416l0,0C598.805,485.226,599.884,484.147,601.221,484.147z M601.221,472.068
							c1.337,0,2.416,1.079,2.416,2.416l0,0c0,1.337-1.079,2.416-2.416,2.416l0,0c-1.337,0-2.416-1.079-2.416-2.416l0,0
							C598.805,473.147,599.884,472.068,601.221,472.068z M601.221,459.989c1.337,0,2.416,1.079,2.416,2.416l0,0
							c0,1.328-1.079,2.416-2.416,2.416l0,0c-1.337,0-2.416-1.087-2.416-2.416l0,0C598.805,461.068,599.884,459.989,601.221,459.989
							z M601.221,447.911c1.337,0,2.416,1.079,2.416,2.416l0,0c0,1.337-1.079,2.416-2.416,2.416l0,0
							c-1.337,0-2.416-1.079-2.416-2.416l0,0C598.805,448.99,599.884,447.911,601.221,447.911z M601.221,435.832
							c1.337,0,2.416,1.079,2.416,2.416l0,0c0,1.337-1.079,2.416-2.416,2.416l0,0c-1.337,0-2.416-1.079-2.416-2.416l0,0
							C598.805,436.911,599.884,435.832,601.221,435.832z M601.221,423.753c1.337,0,2.416,1.079,2.416,2.416l0,0
							c0,1.337-1.079,2.416-2.416,2.416l0,0c-1.337,0-2.416-1.079-2.416-2.416l0,0C598.805,424.832,599.884,423.753,601.221,423.753
							z"/>
					</g>
				</g>
				<g>
					<g>
						<path style="fill:#F6345A;" d="M614.061,484.147c1.337,0,2.416,1.079,2.416,2.416l0,0c0,1.328-1.079,2.416-2.416,2.416l0,0
							c-1.337,0-2.416-1.087-2.416-2.416l0,0C611.646,485.226,612.725,484.147,614.061,484.147z M614.061,472.068
							c1.337,0,2.416,1.079,2.416,2.416l0,0c0,1.337-1.079,2.416-2.416,2.416l0,0c-1.337,0-2.416-1.079-2.416-2.416l0,0
							C611.646,473.147,612.725,472.068,614.061,472.068z M614.061,459.989c1.337,0,2.416,1.079,2.416,2.416l0,0
							c0,1.328-1.079,2.416-2.416,2.416l0,0c-1.337,0-2.416-1.087-2.416-2.416l0,0C611.646,461.068,612.725,459.989,614.061,459.989
							z M614.061,447.911c1.337,0,2.416,1.079,2.416,2.416l0,0c0,1.337-1.079,2.416-2.416,2.416l0,0
							c-1.337,0-2.416-1.079-2.416-2.416l0,0C611.646,448.99,612.725,447.911,614.061,447.911z M614.061,435.832
							c1.337,0,2.416,1.079,2.416,2.416l0,0c0,1.337-1.079,2.416-2.416,2.416l0,0c-1.337,0-2.416-1.079-2.416-2.416l0,0
							C611.646,436.911,612.725,435.832,614.061,435.832z M614.061,423.753c1.337,0,2.416,1.079,2.416,2.416l0,0
							c0,1.337-1.079,2.416-2.416,2.416l0,0c-1.337,0-2.416-1.079-2.416-2.416l0,0C611.646,424.832,612.725,423.753,614.061,423.753
							z"/>
					</g>
				</g>
				<g>
					<g>
						<path style="fill:#F6345A;" d="M626.902,484.147c1.337,0,2.416,1.079,2.416,2.416l0,0c0,1.328-1.079,2.416-2.416,2.416l0,0
							c-1.337,0-2.416-1.087-2.416-2.416l0,0C624.487,485.226,625.565,484.147,626.902,484.147z M626.902,472.068
							c1.337,0,2.416,1.079,2.416,2.416l0,0c0,1.337-1.079,2.416-2.416,2.416l0,0c-1.337,0-2.416-1.079-2.416-2.416l0,0
							C624.487,473.147,625.565,472.068,626.902,472.068z M626.902,459.989c1.337,0,2.416,1.079,2.416,2.416l0,0
							c0,1.328-1.079,2.416-2.416,2.416l0,0c-1.337,0-2.416-1.087-2.416-2.416l0,0C624.487,461.068,625.565,459.989,626.902,459.989
							z M626.902,447.911c1.337,0,2.416,1.079,2.416,2.416l0,0c0,1.337-1.079,2.416-2.416,2.416l0,0
							c-1.337,0-2.416-1.079-2.416-2.416l0,0C624.487,448.99,625.565,447.911,626.902,447.911z M626.902,435.832
							c1.337,0,2.416,1.079,2.416,2.416l0,0c0,1.337-1.079,2.416-2.416,2.416l0,0c-1.337,0-2.416-1.079-2.416-2.416l0,0
							C624.487,436.911,625.565,435.832,626.902,435.832z M626.902,423.753c1.337,0,2.416,1.079,2.416,2.416l0,0
							c0,1.337-1.079,2.416-2.416,2.416l0,0c-1.337,0-2.416-1.079-2.416-2.416l0,0C624.487,424.832,625.565,423.753,626.902,423.753
							z"/>
					</g>
				</g>
				<g>
					<g>
						<path style="fill:#F6345A;" d="M639.743,484.147c1.337,0,2.416,1.079,2.416,2.416l0,0c0,1.328-1.079,2.416-2.416,2.416l0,0
							c-1.337,0-2.416-1.087-2.416-2.416l0,0C637.328,485.226,638.406,484.147,639.743,484.147z M639.743,472.068
							c1.337,0,2.416,1.079,2.416,2.416l0,0c0,1.337-1.079,2.416-2.416,2.416l0,0c-1.337,0-2.416-1.079-2.416-2.416l0,0
							C637.328,473.147,638.406,472.068,639.743,472.068z M639.743,459.989c1.337,0,2.416,1.079,2.416,2.416l0,0
							c0,1.328-1.079,2.416-2.416,2.416l0,0c-1.337,0-2.416-1.087-2.416-2.416l0,0C637.328,461.068,638.406,459.989,639.743,459.989
							z M639.743,447.911c1.337,0,2.416,1.079,2.416,2.416l0,0c0,1.337-1.079,2.416-2.416,2.416l0,0
							c-1.337,0-2.416-1.079-2.416-2.416l0,0C637.328,448.99,638.406,447.911,639.743,447.911z M639.743,435.832
							c1.337,0,2.416,1.079,2.416,2.416l0,0c0,1.337-1.079,2.416-2.416,2.416l0,0c-1.337,0-2.416-1.079-2.416-2.416l0,0
							C637.328,436.911,638.406,435.832,639.743,435.832z M639.743,423.753c1.337,0,2.416,1.079,2.416,2.416l0,0
							c0,1.337-1.079,2.416-2.416,2.416l0,0c-1.337,0-2.416-1.079-2.416-2.416l0,0C637.328,424.832,638.406,423.753,639.743,423.753
							z"/>
					</g>
				</g>
				<g>
					<g>
						<path style="fill:#F6345A;" d="M652.584,484.147c1.337,0,2.416,1.079,2.416,2.416l0,0c0,1.328-1.079,2.416-2.416,2.416l0,0
							c-1.337,0-2.416-1.087-2.416-2.416l0,0C650.169,485.226,651.247,484.147,652.584,484.147z M652.584,472.068
							c1.337,0,2.416,1.079,2.416,2.416l0,0c0,1.337-1.079,2.416-2.416,2.416l0,0c-1.337,0-2.416-1.079-2.416-2.416l0,0
							C650.169,473.147,651.247,472.068,652.584,472.068z M652.584,459.989c1.337,0,2.416,1.079,2.416,2.416l0,0
							c0,1.328-1.079,2.416-2.416,2.416l0,0c-1.337,0-2.416-1.087-2.416-2.416l0,0C650.169,461.068,651.247,459.989,652.584,459.989
							z M652.584,447.911c1.337,0,2.416,1.079,2.416,2.416l0,0c0,1.337-1.079,2.416-2.416,2.416l0,0
							c-1.337,0-2.416-1.079-2.416-2.416l0,0C650.169,448.99,651.247,447.911,652.584,447.911z M652.584,435.832
							c1.337,0,2.416,1.079,2.416,2.416l0,0c0,1.337-1.079,2.416-2.416,2.416l0,0c-1.337,0-2.416-1.079-2.416-2.416l0,0
							C650.169,436.911,651.247,435.832,652.584,435.832z M652.584,423.753c1.337,0,2.416,1.079,2.416,2.416l0,0
							c0,1.337-1.079,2.416-2.416,2.416l0,0c-1.337,0-2.416-1.079-2.416-2.416l0,0C650.169,424.832,651.247,423.753,652.584,423.753
							z"/>
					</g>
				</g>
			</g>
			<g>
				<g>
					<g>
						<g>
							<polygon style="fill:#BCBCBC;" points="394.465,82.333 380.32,82.333 386.377,94.583 380.32,106.833 394.465,106.833 
								401.538,94.583 							"/>
						</g>
					</g>
				</g>
				<g>
					<g>
						<g>
							<polygon style="fill:#BCBCBC;" points="414.799,82.333 400.654,82.333 406.71,94.583 400.654,106.833 414.799,106.833 
								421.871,94.583 							"/>
						</g>
					</g>
				</g>
				<g>
					<g>
						<g>
							<polygon style="fill:#BCBCBC;" points="435.132,82.333 420.987,82.333 427.044,94.583 420.987,106.833 435.132,106.833 
								442.205,94.583 							"/>
						</g>
					</g>
				</g>
				<g>
					<g>
						<g>
							<polygon style="fill:#BCBCBC;" points="455.465,82.333 441.32,82.333 447.377,94.583 441.32,106.833 455.465,106.833 
								462.538,94.583 							"/>
						</g>
					</g>
				</g>
				<g>
					<g>
						<g>
							<polygon style="fill:#BCBCBC;" points="475.799,82.333 461.654,82.333 467.71,94.583 461.654,106.833 475.799,106.833 
								482.871,94.583 							"/>
						</g>
					</g>
				</g>
				<g>
					<g>
						<g>
							<polygon style="fill:#BCBCBC;" points="496.132,82.333 481.987,82.333 488.044,94.583 481.987,106.833 496.132,106.833 
								503.205,94.583 							"/>
						</g>
					</g>
				</g>
				<g>
					<g>
						<g>
							<polygon style="fill:#BCBCBC;" points="516.466,82.333 502.32,82.333 508.377,94.583 502.32,106.833 516.466,106.833 
								523.538,94.583 							"/>
						</g>
					</g>
				</g>
				<g>
					<g>
						<g>
							<polygon style="fill:#BCBCBC;" points="536.799,82.333 522.654,82.333 528.71,94.583 522.654,106.833 536.799,106.833 
								543.871,94.583 							"/>
						</g>
					</g>
				</g>
			</g>
			<g>
				<path style="fill:#BCBCBC;" d="M262.438,251.032h-93.375c-4.17,0-7.563-3.393-7.563-7.563c0-4.17,3.393-7.563,7.563-7.563
					h93.375c4.17,0,7.563,3.393,7.563,7.563C270,247.64,266.607,251.032,262.438,251.032z M169.063,236.907
					c-3.619,0-6.563,2.944-6.563,6.563c0,3.619,2.944,6.563,6.563,6.563h93.375c3.619,0,6.563-2.944,6.563-6.563
					c0-3.619-2.944-6.563-6.563-6.563H169.063z"/>
			</g>
			<g>
				<path style="fill:#BCBCBC;" d="M666.583,230.111c-4.17,0-7.563-3.392-7.563-7.562v-93.376c0-4.17,3.393-7.562,7.563-7.562
					c4.17,0,7.563,3.393,7.563,7.562v93.376C674.146,226.719,670.753,230.111,666.583,230.111z M666.583,122.611
					c-3.618,0-6.563,2.944-6.563,6.562v93.376c0,3.618,2.944,6.562,6.563,6.562c3.618,0,6.563-2.944,6.563-6.562v-93.376
					C673.146,125.555,670.201,122.611,666.583,122.611z"/>
			</g>
			<g>
				<path style="fill:#BCBCBC;" d="M730.707,210.124h-30.956c-4.17,0-7.561-3.392-7.561-7.562s3.392-7.563,7.561-7.563h30.956
					c4.17,0,7.563,3.393,7.563,7.563S734.877,210.124,730.707,210.124z M699.751,196c-3.618,0-6.561,2.944-6.561,6.563
					c0,3.618,2.943,6.562,6.561,6.562h30.956c3.618,0,6.563-2.944,6.563-6.562c0-3.619-2.944-6.563-6.563-6.563H699.751z"/>
			</g>
			<g>
				<path style="fill:#FFDE4A;" d="M393.042,445.138v-34.84c0-3.884,3.178-7.062,7.062-7.062l0,0c3.884,0,7.062,3.178,7.062,7.062
					v34.84c0,3.884-3.178,7.062-7.062,7.062l0,0C396.22,452.201,393.042,449.023,393.042,445.138z"/>
			</g>
			<g>
				<path style="fill:#FFDE4A;" d="M587.568,99.753V64.914c0-3.884,3.178-7.062,7.062-7.062l0,0c3.884,0,7.062,3.178,7.062,7.062
					v34.839c0,3.884-3.178,7.062-7.062,7.062l0,0C590.746,106.815,587.568,103.637,587.568,99.753z"/>
			</g>
			<g>
				<g>
					<path style="fill:#BCBCBC;" d="M129.382,50c-7.72,0-14-6.28-14-14s6.28-14,14-14c7.72,0,14,6.28,14,14S137.102,50,129.382,50z
						 M129.382,23c-7.168,0-13,5.831-13,13s5.832,13,13,13c7.169,0,13-5.832,13-13S136.551,23,129.382,23z"/>
				</g>
				<g>
					<circle style="fill:#BCBCBC;" cx="129.382" cy="36" r="4.375"/>
				</g>
			</g>
			<g>
				<g>
					<path style="fill:#BCBCBC;" d="M451.93,356.7c-7.72,0-14-6.28-14-14s6.28-14,14-14s14,6.28,14,14S459.649,356.7,451.93,356.7z
						 M451.93,329.7c-7.168,0-13,5.832-13,13s5.832,13,13,13s13-5.832,13-13S459.098,329.7,451.93,329.7z"/>
				</g>
				<g>
					<circle style="fill:#BCBCBC;" cx="451.929" cy="342.701" r="4.375"/>
				</g>
			</g>
			<g>
				<g>
					<path style="fill:#BCBCBC;" d="M65.26,382.484c-4.087,0-7.412-3.325-7.412-7.413c0-4.087,3.325-7.412,7.412-7.412
						c4.087,0,7.413,3.325,7.413,7.412C72.672,379.159,69.347,382.484,65.26,382.484z M65.26,368.659
						c-3.536,0-6.412,2.876-6.412,6.412s2.876,6.413,6.412,6.413c3.536,0,6.413-2.877,6.413-6.413S68.796,368.659,65.26,368.659z"/>
				</g>
				<g>
					<path style="fill:#BCBCBC;" d="M65.26,377.811c-1.511,0-2.74-1.229-2.74-2.74c0-1.511,1.229-2.739,2.74-2.739
						c1.511,0,2.74,1.228,2.74,2.739C68,376.582,66.771,377.811,65.26,377.811z M65.26,373.332c-0.96,0-1.74,0.78-1.74,1.739
						c0,0.96,0.78,1.74,1.74,1.74c0.959,0,1.74-0.78,1.74-1.74C67,374.112,66.219,373.332,65.26,373.332z"/>
				</g>
			</g>
			<g>
				<g>
					<path style="fill:#BCBCBC;" d="M122.795,408.898c-10.145,0-18.398-8.254-18.398-18.398s8.253-18.398,18.398-18.398
						s18.399,8.254,18.399,18.398S132.94,408.898,122.795,408.898z M122.795,373.102c-9.594,0-17.398,7.805-17.398,17.398
						c0,9.594,7.805,17.398,17.398,17.398c9.594,0,17.399-7.805,17.399-17.398C140.193,380.906,132.389,373.102,122.795,373.102z"/>
				</g>
				<g>
					<path style="fill:#BCBCBC;" d="M122.795,396.801c-3.474,0-6.301-2.826-6.301-6.301s2.827-6.301,6.301-6.301
						s6.3,2.826,6.3,6.301S126.269,396.801,122.795,396.801z M122.795,385.199c-2.923,0-5.301,2.378-5.301,5.301
						s2.378,5.301,5.301,5.301c2.922,0,5.3-2.378,5.3-5.301S125.717,385.199,122.795,385.199z"/>
				</g>
			</g>
			<g>
				<g>
					<path style="fill:#FFE231;" d="M561,191.267c-4.087,0-7.412-3.325-7.412-7.413c0-4.087,3.325-7.412,7.412-7.412
						s7.412,3.325,7.412,7.412C568.412,187.942,565.087,191.267,561,191.267z M561,177.442c-3.536,0-6.412,2.876-6.412,6.412
						c0,3.536,2.876,6.413,6.412,6.413c3.536,0,6.412-2.877,6.412-6.413C567.412,180.319,564.536,177.442,561,177.442z"/>
				</g>
				<g>
					<path style="fill:#FFE231;" d="M561,186.595c-1.511,0-2.74-1.229-2.74-2.74c0-1.511,1.23-2.74,2.74-2.74s2.74,1.229,2.74,2.74
						C563.74,185.365,562.511,186.595,561,186.595z M561,182.114c-0.96,0-1.74,0.781-1.74,1.74c0,0.959,0.78,1.74,1.74,1.74
						s1.74-0.781,1.74-1.74C562.74,182.895,561.96,182.114,561,182.114z"/>
				</g>
			</g>
			<g>
				<g>
					<path style="fill:#4AD6D5;" d="M652.608,61c-9.042,0-16.398-7.355-16.398-16.397s7.356-16.397,16.398-16.397
						s16.397,7.356,16.397,16.397S661.65,61,652.608,61z M652.608,29.206c-8.49,0-15.398,6.907-15.398,15.397
						c0,8.49,6.907,15.397,15.398,15.397c8.49,0,15.397-6.907,15.397-15.397C668.006,36.113,661.099,29.206,652.608,29.206z"/>
				</g>
				<g>
					<path style="fill:#4AD6D5;" d="M652.608,50.255c-3.117,0-5.652-2.536-5.652-5.652s2.535-5.652,5.652-5.652
						c3.116,0,5.651,2.536,5.651,5.652S655.725,50.255,652.608,50.255z M652.608,39.951c-2.565,0-4.652,2.087-4.652,4.652
						c0,2.565,2.087,4.652,4.652,4.652c2.565,0,4.651-2.087,4.651-4.652C657.26,42.038,655.173,39.951,652.608,39.951z"/>
				</g>
			</g>
		</g>
	</g>
</g>
</svg>
