<?xml version="1.0" encoding="utf-8"?>
<!-- Generator: Adobe Illustrator 27.5.0, SVG Export Plug-In . SVG Version: 6.00 Build 0)  -->
<svg version="1.1" xmlns="http://www.w3.org/2000/svg" xmlns:xlink="http://www.w3.org/1999/xlink" x="0px" y="0px"
	 viewBox="0 0 750 500" style="enable-background:new 0 0 750 500;" xml:space="preserve">
<g id="BACKGROUND">
	<g>
		<rect style="fill:#2C323D;" width="750" height="500"/>
	</g>
</g>
<g id="OBJECTS">
	<polygon style="fill:#EFC255;" points="613.551,210.728 613.445,172.22 574.89,210.7 574.89,172.145 613.38,172.145 
		613.38,133.665 613.551,133.665 613.551,133.616 651.935,133.616 651.935,95.11 693,95.11 693,249.764 536.607,249.764 
		536.607,210.728 	"/>
	
		<line style="fill:none;stroke:#6A8DBD;stroke-width:3;stroke-linecap:round;stroke-linejoin:round;stroke-miterlimit:10;" x1="390.06" y1="394.099" x2="531.053" y2="253.106"/>
	<g>
		<path style="fill:#DD5025;" d="M419.397,222.231c-0.236-19.905-16.437-35.971-36.398-35.971
			c-19.961,0-36.163,16.066-36.399,35.971H419.397z"/>
		<path style="fill:none;stroke:#DD5025;stroke-width:0.9712;stroke-miterlimit:10;" d="M419.397,266.098
			c-0.236-19.905-16.437-35.971-36.398-35.971c-19.961,0-36.163,16.066-36.399,35.971H419.397z"/>
		
			<path style="fill:none;stroke:#FFFFFF;stroke-width:1.6181;stroke-linecap:round;stroke-linejoin:round;stroke-miterlimit:10;" d="
			M412.628,210.483L412.628,210.483c-8.455,0-15.372-6.918-15.372-15.372l0,0c0-8.455,6.918-15.372,15.372-15.372l0,0
			c8.455,0,15.372,6.918,15.372,15.372l0,0C428,203.566,421.082,210.483,412.628,210.483z"/>
	</g>
	<g>
		<linearGradient id="SVGID_1_" gradientUnits="userSpaceOnUse" x1="117.8665" y1="313" x2="328.1335" y2="313">
			<stop  offset="0" style="stop-color:#6A8DBD"/>
			<stop  offset="0.072" style="stop-color:#6788B7"/>
		</linearGradient>
		<path style="fill:none;stroke:url(#SVGID_1_);stroke-width:2.2671;stroke-miterlimit:10;" d="M327,313c0,57.44-46.56,104-104,104
			s-104-46.56-104-104s46.56-104,104-104c0.21,0,0.43,0,0.64,0.01c56.03,0.33,101.56,44.97,103.3,100.66
			C326.98,310.78,327,311.89,327,313z"/>
		
			<linearGradient id="SVGID_00000139276941094876895540000015241781486477912722_" gradientUnits="userSpaceOnUse" x1="144.2509" y1="312.9999" x2="301.7491" y2="312.9999">
			<stop  offset="0" style="stop-color:#6A8DBD"/>
			<stop  offset="0.072" style="stop-color:#6788B7"/>
		</linearGradient>
		
			<ellipse transform="matrix(0.7071 -0.7071 0.7071 0.7071 -156.0092 249.3603)" style="fill:none;stroke:url(#SVGID_00000139276941094876895540000015241781486477912722_);stroke-width:2.2671;stroke-miterlimit:10;" cx="223" cy="313" rx="77.616" ry="77.616"/>
		
			<linearGradient id="SVGID_00000124884756186046408210000008658814128197226431_" gradientUnits="userSpaceOnUse" x1="174.4231" y1="313" x2="271.5768" y2="313">
			<stop  offset="0" style="stop-color:#6A8DBD"/>
			<stop  offset="0.072" style="stop-color:#6788B7"/>
		</linearGradient>
		
			<circle style="fill:none;stroke:url(#SVGID_00000124884756186046408210000008658814128197226431_);stroke-width:2.2671;stroke-miterlimit:10;" cx="223" cy="313" r="47.443"/>
		
			<linearGradient id="SVGID_00000128451416630065868830000000749291545060730558_" gradientUnits="userSpaceOnUse" x1="198.6885" y1="313" x2="247.3117" y2="313">
			<stop  offset="0" style="stop-color:#6A8DBD"/>
			<stop  offset="0.072" style="stop-color:#6788B7"/>
		</linearGradient>
		
			<path style="fill:none;stroke:url(#SVGID_00000128451416630065868830000000749291545060730558_);stroke-width:2.2671;stroke-miterlimit:10;" d="
			M246.178,313c0,12.801-10.377,23.178-23.178,23.178c-12.801,0-23.178-10.377-23.178-23.178c0-12.801,10.377-23.178,23.178-23.178
			C235.801,289.822,246.178,300.199,246.178,313z"/>
	</g>
	
		<ellipse transform="matrix(0.1545 -0.988 0.988 0.1545 302.5205 978.6094)" style="fill:none;stroke:#6A8DBD;stroke-width:1.646;stroke-linecap:round;stroke-linejoin:round;stroke-miterlimit:10;" cx="723" cy="312.561" rx="12.507" ry="12.507"/>
	<path style="fill:#6A8DBD;" d="M731.844,455.717c4.884,4.884,4.884,12.803,0,17.688c-4.884,4.884-12.804,4.884-17.688,0
		c-4.884-4.884-4.884-12.804,0-17.688C719.04,450.833,726.959,450.833,731.844,455.717z"/>
	<g>
		<g>
			
				<linearGradient id="SVGID_00000031208255373396630550000009151877295574321282_" gradientUnits="userSpaceOnUse" x1="269.5806" y1="151.6107" x2="320.4125" y2="151.6107">
				<stop  offset="0" style="stop-color:#6A8DBD"/>
				<stop  offset="0.072" style="stop-color:#6788B7"/>
			</linearGradient>
			<path style="fill:url(#SVGID_00000031208255373396630550000009151877295574321282_);" d="M309.145,138.14
				c0.054,0.502,0.084,1.01,0.084,1.526c0,7.847-6.384,14.232-14.232,14.232c-7.848,0-14.233-6.385-14.233-14.232
				c0-0.516,0.031-1.024,0.085-1.526h-11.218c-0.03,0.505-0.05,1.013-0.05,1.526c0,14.014,11.402,25.416,25.416,25.416
				c14.015,0,25.416-11.402,25.416-25.416c0-0.512-0.019-1.02-0.049-1.526H309.145z"/>
		</g>
		<g>
			
				<linearGradient id="SVGID_00000139286901956873929240000009947310889861570463_" gradientUnits="userSpaceOnUse" x1="270.4161" y1="184.196" x2="321.248" y2="184.196">
				<stop  offset="0" style="stop-color:#6A8DBD"/>
				<stop  offset="0.072" style="stop-color:#6788B7"/>
			</linearGradient>
			<path style="fill:url(#SVGID_00000139286901956873929240000009947310889861570463_);" d="M309.98,170.725
				c0.054,0.502,0.084,1.01,0.084,1.525c0,7.848-6.384,14.232-14.233,14.232c-7.848,0-14.232-6.385-14.232-14.232
				c0-0.516,0.031-1.024,0.085-1.525h-11.218c-0.03,0.505-0.05,1.013-0.05,1.525c0,14.014,11.402,25.416,25.416,25.416
				c14.015,0,25.416-11.402,25.416-25.416c0-0.512-0.019-1.02-0.049-1.525H309.98z"/>
		</g>
	</g>
	<path style="fill:#EFC255;" d="M195.166,186.927c0,3.889-3.153,7.042-7.042,7.042c-3.889,0-7.042-3.153-7.042-7.042
		c0-3.889,3.153-7.042,7.042-7.042C192.013,179.885,195.166,183.038,195.166,186.927z"/>
	<path style="fill:#EFC255;" d="M315.618,418.082c0,3.889-3.153,7.042-7.042,7.042c-3.889,0-7.042-3.153-7.042-7.042
		c0-3.889,3.153-7.042,7.042-7.042C312.465,411.04,315.618,414.193,315.618,418.082z"/>
	<path style="fill:#EFC255;" d="M481.651,161.595c0,3.889-3.153,7.042-7.042,7.042c-3.889,0-7.042-3.153-7.042-7.042
		c0-3.889,3.153-7.042,7.042-7.042C478.499,154.553,481.651,157.706,481.651,161.595z"/>
	<g>
		<defs>
			<path id="SVGID_00000126301783587037672080000001175726834051524494_" d="M39.62,500V292.264h47.347
				c-1.67,8.446-2.553,17.19-2.553,26.138c0,74.057,60.03,134.086,134.086,134.086c9.912,0,19.567-1.072,28.854-3.123V500H39.62z"/>
		</defs>
		<clipPath id="SVGID_00000156552034202151640180000005758715339000357520_">
			<use xlink:href="#SVGID_00000126301783587037672080000001175726834051524494_"  style="overflow:visible;"/>
		</clipPath>
		
			<linearGradient id="SVGID_00000078036359592954034790000009018750488553093012_" gradientUnits="userSpaceOnUse" x1="39.6204" y1="396.1322" x2="247.3555" y2="396.1322">
			<stop  offset="0" style="stop-color:#6A8DBD"/>
			<stop  offset="0.072" style="stop-color:#6788B7"/>
		</linearGradient>
		
			<path style="clip-path:url(#SVGID_00000156552034202151640180000005758715339000357520_);fill:url(#SVGID_00000078036359592954034790000009018750488553093012_);" d="
			M39.62,500V292.264h47.347c-1.67,8.446-2.553,17.19-2.553,26.138c0,74.057,60.03,134.086,134.086,134.086
			c9.912,0,19.567-1.072,28.854-3.123V500H39.62z"/>
		
			<path style="clip-path:url(#SVGID_00000156552034202151640180000005758715339000357520_);fill:none;stroke:#FFFFFF;stroke-width:2.7157;stroke-linecap:round;stroke-linejoin:round;stroke-miterlimit:10;" d="
			M91.48,495.251L9.152,561.879c-12.481,10.101-30.957,8.154-41.058-4.327l0,0c-10.101-12.481-8.154-30.957,4.327-41.058
			l82.328-66.628c12.481-10.101,30.957-8.154,41.058,4.327l0,0C105.908,466.673,103.961,485.15,91.48,495.251z"/>
		
			<path style="clip-path:url(#SVGID_00000156552034202151640180000005758715339000357520_);fill:none;stroke:#FFFFFF;stroke-width:2.7157;stroke-linecap:round;stroke-linejoin:round;stroke-miterlimit:10;" d="
			M85.832,532.888c10.277-8.149,19.789-17.263,28.368-27.183c5.4-6.243,10.493-12.912,13.596-20.561
			c2.895-7.138,3.952-14.86,5.696-22.363c5.885-25.312,20.028-48.633,39.753-65.551"/>
		
			<path style="clip-path:url(#SVGID_00000156552034202151640180000005758715339000357520_);fill:none;stroke:#FFFFFF;stroke-width:2.7157;stroke-linecap:round;stroke-linejoin:round;stroke-miterlimit:10;" d="
			M133.521,371.662c-7.966,18.899-26.374,32.988-46.697,35.743c-9.391,1.272-18.962,0.283-28.381,1.321
			c-20.605,2.271-38.804,13.938-56.15,25.288"/>
		
			<path style="clip-path:url(#SVGID_00000156552034202151640180000005758715339000357520_);fill:none;stroke:#FFFFFF;stroke-width:2.7157;stroke-linecap:round;stroke-linejoin:round;stroke-miterlimit:10;" d="
			M29.361,395.958c9.874-4.338,19.535-9.735,26.774-17.73c7.239-7.995,11.801-18.957,10.104-29.608
			c-2.072-12.997-13.041-23.162-25.273-28.021c-12.231-4.859-25.691-5.359-38.845-5.797"/>
		
			<path style="clip-path:url(#SVGID_00000156552034202151640180000005758715339000357520_);fill:none;stroke:#FFFFFF;stroke-width:2.7157;stroke-linecap:round;stroke-linejoin:round;stroke-miterlimit:10;" d="
			M148.603,526.1c-4.107-13.887-0.07-29.87,10.139-40.141c10.209-10.271,26.167-14.404,40.078-10.382
			c6.665,1.928,12.712,5.52,19.141,8.128c26.249,10.647,58.879,2.758,77.365-18.705"/>
	</g>
	<g>
		<path style="fill:#EFC255;" d="M25.091,448.439L25.091,448.439c0,2.25-1.841,4.091-4.091,4.091l0,0
			c-2.25,0-4.091-1.841-4.091-4.091v0c0-2.25,1.841-4.091,4.091-4.091l0,0C23.25,444.348,25.091,446.189,25.091,448.439z"/>
		<path style="fill:#EFC255;" d="M25.091,426.97L25.091,426.97c0,2.25-1.841,4.091-4.091,4.091l0,0c-2.25,0-4.091-1.841-4.091-4.091
			l0,0c0-2.25,1.841-4.091,4.091-4.091l0,0C23.25,422.879,25.091,424.72,25.091,426.97z"/>
		<path style="fill:#EFC255;" d="M25.091,405.5L25.091,405.5c0,2.25-1.841,4.091-4.091,4.091l0,0c-2.25,0-4.091-1.841-4.091-4.091
			l0,0c0-2.25,1.841-4.091,4.091-4.091l0,0C23.25,401.409,25.091,403.25,25.091,405.5z"/>
		<path style="fill:#EFC255;" d="M25.091,384.03L25.091,384.03c0,2.25-1.841,4.091-4.091,4.091l0,0c-2.25,0-4.091-1.841-4.091-4.091
			l0,0c0-2.25,1.841-4.091,4.091-4.091l0,0C23.25,379.939,25.091,381.78,25.091,384.03z"/>
		<path style="fill:#EFC255;" d="M25.091,362.561L25.091,362.561c0,2.25-1.841,4.091-4.091,4.091l0,0
			c-2.25,0-4.091-1.841-4.091-4.091l0,0c0-2.25,1.841-4.091,4.091-4.091l0,0C23.25,358.47,25.091,360.311,25.091,362.561z"/>
		<path style="fill:#EFC255;" d="M25.091,341.091L25.091,341.091c0,2.25-1.841,4.091-4.091,4.091l0,0
			c-2.25,0-4.091-1.841-4.091-4.091l0,0c0-2.25,1.841-4.091,4.091-4.091l0,0C23.25,337,25.091,338.841,25.091,341.091z"/>
		<path style="fill:#EFC255;" d="M25.091,319.621L25.091,319.621c0,2.25-1.841,4.091-4.091,4.091l0,0
			c-2.25,0-4.091-1.841-4.091-4.091l0,0c0-2.25,1.841-4.091,4.091-4.091l0,0C23.25,315.53,25.091,317.371,25.091,319.621z"/>
		<path style="fill:#EFC255;" d="M25.091,298.152L25.091,298.152c0,2.25-1.841,4.091-4.091,4.091l0,0
			c-2.25,0-4.091-1.841-4.091-4.091l0,0c0-2.25,1.841-4.091,4.091-4.091l0,0C23.25,294.061,25.091,295.902,25.091,298.152z"/>
	</g>
	<g>
		<path style="fill:#EFC255;" d="M731.091,253.909L731.091,253.909c0,2.25-1.841,4.091-4.091,4.091l0,0
			c-2.25,0-4.091-1.841-4.091-4.091v0c0-2.25,1.841-4.091,4.091-4.091l0,0C729.25,249.818,731.091,251.659,731.091,253.909z"/>
		<path style="fill:#EFC255;" d="M731.091,232.439L731.091,232.439c0,2.25-1.841,4.091-4.091,4.091l0,0
			c-2.25,0-4.091-1.841-4.091-4.091l0,0c0-2.25,1.841-4.091,4.091-4.091l0,0C729.25,228.348,731.091,230.189,731.091,232.439z"/>
		<path style="fill:#EFC255;" d="M731.091,210.969L731.091,210.969c0,2.25-1.841,4.091-4.091,4.091l0,0
			c-2.25,0-4.091-1.841-4.091-4.091l0,0c0-2.25,1.841-4.091,4.091-4.091l0,0C729.25,206.878,731.091,208.719,731.091,210.969z"/>
		<path style="fill:#EFC255;" d="M731.091,189.5L731.091,189.5c0,2.25-1.841,4.091-4.091,4.091l0,0c-2.25,0-4.091-1.841-4.091-4.091
			l0,0c0-2.25,1.841-4.091,4.091-4.091l0,0C729.25,185.409,731.091,187.25,731.091,189.5z"/>
		<path style="fill:#EFC255;" d="M731.091,168.03L731.091,168.03c0,2.25-1.841,4.091-4.091,4.091l0,0
			c-2.25,0-4.091-1.841-4.091-4.091l0,0c0-2.25,1.841-4.091,4.091-4.091l0,0C729.25,163.939,731.091,165.78,731.091,168.03z"/>
		<path style="fill:#EFC255;" d="M731.091,146.561L731.091,146.561c0,2.25-1.841,4.091-4.091,4.091l0,0
			c-2.25,0-4.091-1.841-4.091-4.091l0,0c0-2.25,1.841-4.091,4.091-4.091l0,0C729.25,142.47,731.091,144.311,731.091,146.561z"/>
		<path style="fill:#EFC255;" d="M731.091,125.091L731.091,125.091c0,2.25-1.841,4.091-4.091,4.091l0,0
			c-2.25,0-4.091-1.841-4.091-4.091l0,0c0-2.25,1.841-4.091,4.091-4.091l0,0C729.25,121,731.091,122.841,731.091,125.091z"/>
		<path style="fill:#EFC255;" d="M731.091,103.621L731.091,103.621c0,2.25-1.841,4.091-4.091,4.091l0,0
			c-2.25,0-4.091-1.841-4.091-4.091l0,0c0-2.25,1.841-4.091,4.091-4.091l0,0C729.25,99.53,731.091,101.371,731.091,103.621z"/>
	</g>
	<g>
		<path style="fill:#EFC255;" d="M15.652,93.182L15.652,93.182c-2.25,0-4.091-1.841-4.091-4.091l0,0c0-2.25,1.841-4.091,4.091-4.091
			l0,0c2.25,0,4.091,1.841,4.091,4.091l0,0C19.743,91.341,17.902,93.182,15.652,93.182z"/>
		<path style="fill:#EFC255;" d="M37.121,93.182L37.121,93.182c-2.25,0-4.091-1.841-4.091-4.091l0,0c0-2.25,1.841-4.091,4.091-4.091
			l0,0c2.25,0,4.091,1.841,4.091,4.091l0,0C41.213,91.341,39.372,93.182,37.121,93.182z"/>
		<path style="fill:#EFC255;" d="M58.591,93.182L58.591,93.182c-2.25,0-4.091-1.841-4.091-4.091l0,0c0-2.25,1.841-4.091,4.091-4.091
			l0,0c2.25,0,4.091,1.841,4.091,4.091l0,0C62.682,91.341,60.841,93.182,58.591,93.182z"/>
		<path style="fill:#EFC255;" d="M80.061,93.182L80.061,93.182c-2.25,0-4.091-1.841-4.091-4.091l0,0c0-2.25,1.841-4.091,4.091-4.091
			l0,0c2.25,0,4.091,1.841,4.091,4.091l0,0C84.152,91.341,82.311,93.182,80.061,93.182z"/>
		<path style="fill:#EFC255;" d="M101.53,93.182L101.53,93.182c-2.25,0-4.091-1.841-4.091-4.091l0,0c0-2.25,1.841-4.091,4.091-4.091
			l0,0c2.25,0,4.091,1.841,4.091,4.091l0,0C105.621,91.341,103.78,93.182,101.53,93.182z"/>
		<path style="fill:#EFC255;" d="M123,93.182L123,93.182c-2.25,0-4.091-1.841-4.091-4.091l0,0c0-2.25,1.841-4.091,4.091-4.091l0,0
			c2.25,0,4.091,1.841,4.091,4.091l0,0C127.091,91.341,125.25,93.182,123,93.182z"/>
		<path style="fill:#EFC255;" d="M144.47,93.182L144.47,93.182c-2.25,0-4.091-1.841-4.091-4.091l0,0c0-2.25,1.841-4.091,4.091-4.091
			l0,0c2.25,0,4.091,1.841,4.091,4.091l0,0C148.561,91.341,146.72,93.182,144.47,93.182z"/>
		<path style="fill:#EFC255;" d="M165.939,93.182L165.939,93.182c-2.25,0-4.091-1.841-4.091-4.091l0,0
			c0-2.25,1.841-4.091,4.091-4.091l0,0c2.25,0,4.091,1.841,4.091,4.091l0,0C170.03,91.341,168.189,93.182,165.939,93.182z"/>
	</g>
	<g>
		
			<rect y="35.062" transform="matrix(-1 -1.224647e-16 1.224647e-16 -1 42.0075 103.7087)" style="fill:#DD5025;" width="42.007" height="33.584"/>
		
			<rect x="47.975" y="35.062" transform="matrix(-1 -1.224647e-16 1.224647e-16 -1 108.1205 103.7087)" style="fill:#DD5025;" width="12.17" height="33.584"/>
		
			<rect x="66.539" y="35.062" transform="matrix(-1 -1.224647e-16 1.224647e-16 -1 145.2489 103.7087)" style="fill:#DD5025;" width="12.17" height="33.584"/>
		
			<rect x="85.666" y="35.062" transform="matrix(-1 -1.224647e-16 1.224647e-16 -1 183.5023 103.7087)" style="fill:#DD5025;" width="12.17" height="33.584"/>
		
			<rect x="103.668" y="35.062" transform="matrix(-1 -1.224647e-16 1.224647e-16 -1 213.9726 103.7087)" style="fill:#DD5025;" width="6.637" height="33.584"/>
		
			<rect x="115.481" y="35.062" transform="matrix(-1 -1.224647e-16 1.224647e-16 -1 237.5997 103.7087)" style="fill:#DD5025;" width="6.637" height="33.584"/>
		
			<rect x="127.295" y="35.062" transform="matrix(-1 -1.224647e-16 1.224647e-16 -1 261.2269 103.7087)" style="fill:#DD5025;" width="6.637" height="33.584"/>
		
			<rect x="139.109" y="35.062" transform="matrix(-1 -1.224647e-16 1.224647e-16 -1 284.8542 103.7087)" style="fill:#DD5025;" width="6.637" height="33.584"/>
		
			<rect x="150.922" y="35.062" transform="matrix(-1 -1.224647e-16 1.224647e-16 -1 308.4811 103.7087)" style="fill:#DD5025;" width="6.637" height="33.584"/>
		<path style="fill:#DD5025;" d="M163.519,68.647c9.126-0.792,16.29-8.439,16.29-17.771c0-9.332-7.164-16.98-16.29-17.772V68.647z"
			/>
		<path style="fill:#DD5025;" d="M186.021,68.647c9.126-0.792,16.29-8.439,16.29-17.771c0-9.332-7.164-16.98-16.29-17.772V68.647z"
			/>
		<path style="fill:#DD5025;" d="M207.023,68.647c9.126-0.792,16.29-8.439,16.29-17.771c0-9.332-7.164-16.98-16.29-17.772V68.647z"
			/>
	</g>
	<polygon style="fill:#F3EBDE;" points="674.166,35.136 682.868,22.434 682.442,37.825 696.949,32.664 687.557,44.866 
		702.327,49.217 687.557,53.568 696.949,65.77 682.442,60.608 682.868,76 674.166,63.298 665.463,76 665.889,60.608 651.382,65.77 
		660.774,53.568 646.004,49.217 660.774,44.866 651.382,32.664 665.889,37.825 665.463,22.434 	"/>
	
		<linearGradient id="SVGID_00000104682458832072781450000015958033885908873394_" gradientUnits="userSpaceOnUse" x1="270.9974" y1="46.7904" x2="321.6693" y2="46.7904">
		<stop  offset="0" style="stop-color:#6A8DBD"/>
		<stop  offset="0.072" style="stop-color:#6788B7"/>
	</linearGradient>
	
		<rect x="270.997" style="fill:url(#SVGID_00000104682458832072781450000015958033885908873394_);" width="50.672" height="93.581"/>
	
		<linearGradient id="SVGID_00000106149368603066273260000001593121229448875661_" gradientUnits="userSpaceOnUse" x1="271" y1="113.6666" x2="321.6667" y2="113.6666">
		<stop  offset="0" style="stop-color:#6A8DBD"/>
		<stop  offset="0.072" style="stop-color:#6788B7"/>
	</linearGradient>
	
		<rect x="271" y="107" style="fill:url(#SVGID_00000106149368603066273260000001593121229448875661_);" width="50.667" height="13.333"/>
	<g>
		
			<linearGradient id="SVGID_00000103258195964051439240000017560705479923095461_" gradientUnits="userSpaceOnUse" x1="21" y1="179.1667" x2="134" y2="179.1667">
			<stop  offset="0" style="stop-color:#6A8DBD"/>
			<stop  offset="0.072" style="stop-color:#6788B7"/>
		</linearGradient>
		<polygon style="fill:url(#SVGID_00000103258195964051439240000017560705479923095461_);" points="134,235.667 21,235.667 
			134,122.667 		"/>
		
			<linearGradient id="SVGID_00000147200825200235504640000011124326937313783175_" gradientUnits="userSpaceOnUse" x1="20.5239" y1="179.1667" x2="134.4761" y2="179.1667">
			<stop  offset="0" style="stop-color:#6A8DBD"/>
			<stop  offset="0.072" style="stop-color:#6788B7"/>
		</linearGradient>
		
			<rect x="21" y="122.667" style="fill:none;stroke:url(#SVGID_00000147200825200235504640000011124326937313783175_);stroke-width:0.9522;stroke-miterlimit:10;" width="113" height="113"/>
		
			<rect x="31.71" y="132.425" style="fill:none;stroke:#F3EBDE;stroke-width:0.9522;stroke-miterlimit:10;" width="93.484" height="93.484"/>
		<rect x="39.804" y="141.471" style="fill:#F3EBDE;" width="75.391" height="75.391"/>
		<polygon style="fill:#DD5025;" points="39.804,216.862 39.804,141.471 115.196,141.471 		"/>
	</g>
	<g>
		
			<line style="fill:none;stroke:#6A8DBD;stroke-width:2.0727;stroke-linecap:round;stroke-linejoin:round;stroke-miterlimit:10;" x1="164.568" y1="121.599" x2="164.568" y2="155.796"/>
		
			<line style="fill:none;stroke:#6A8DBD;stroke-width:2.0727;stroke-linecap:round;stroke-linejoin:round;stroke-miterlimit:10;" x1="181.667" y1="138.697" x2="147.469" y2="138.697"/>
	</g>
	<g>
		
			<line style="fill:none;stroke:#6A8DBD;stroke-width:2.0727;stroke-linecap:round;stroke-linejoin:round;stroke-miterlimit:10;" x1="207.235" y1="121.599" x2="207.235" y2="155.796"/>
		
			<line style="fill:none;stroke:#6A8DBD;stroke-width:2.0727;stroke-linecap:round;stroke-linejoin:round;stroke-miterlimit:10;" x1="224.333" y1="138.697" x2="190.136" y2="138.697"/>
	</g>
	<path style="fill:#DD5025;" d="M329.003,311.68H221.577V207C279.845,207.343,327.193,253.766,329.003,311.68z"/>
	<g>
		<defs>
			<path id="SVGID_00000085214056188972373830000003578262608294610870_" d="M329.003,311.68H221.577V207
				C279.845,207.343,327.193,253.766,329.003,311.68z"/>
		</defs>
		<clipPath id="SVGID_00000033336536512766031200000003717886751585393839_">
			<use xlink:href="#SVGID_00000085214056188972373830000003578262608294610870_"  style="overflow:visible;"/>
		</clipPath>
		
			<ellipse transform="matrix(0.7071 -0.7071 0.7071 0.7071 -156.0092 249.3603)" style="clip-path:url(#SVGID_00000033336536512766031200000003717886751585393839_);fill:none;stroke:#F3EBDE;stroke-width:2;stroke-miterlimit:10;" cx="223" cy="313" rx="77.616" ry="77.616"/>
		
			<ellipse transform="matrix(0.7071 -0.7071 0.7071 0.7071 -156.0092 249.3603)" style="clip-path:url(#SVGID_00000033336536512766031200000003717886751585393839_);fill:none;stroke:#F3EBDE;stroke-width:2;stroke-miterlimit:10;" cx="223" cy="313" rx="47.14" ry="47.14"/>
	</g>
	<g>
		<rect x="349" y="138" style="fill:#F3EBDE;" width="22" height="22"/>
		<rect x="349" y="92.826" style="fill:none;stroke:#F3EBDE;stroke-width:0.9565;stroke-miterlimit:10;" width="22" height="22"/>
		<rect x="349" y="52.652" style="fill:#DD5025;" width="22" height="22"/>
		<rect x="349" y="12.478" style="fill:none;stroke:#F3EBDE;stroke-width:0.9565;stroke-miterlimit:10;" width="22" height="22"/>
	</g>
	
		<polyline style="fill:none;stroke:#FFFFFF;stroke-width:2;stroke-linecap:round;stroke-linejoin:round;stroke-miterlimit:10;" points="
		535.892,269.59 549.245,283.341 563.394,269.989 576.747,283.341 589.502,270.985 603.053,283.74 615.21,271.185 626.769,283.541 
		639.922,270.786 	"/>
	
		<polyline style="fill:none;stroke:#FFFFFF;stroke-width:2;stroke-linecap:round;stroke-linejoin:round;stroke-miterlimit:10;" points="
		536.498,292.601 549.85,306.353 564,293 577.353,306.353 590.107,293.996 603.659,306.751 615.816,294.196 627.375,306.552 
		640.528,293.797 	"/>
	<path style="fill:#DD5025;" d="M384.691,337.473c0,2.826-2.291,5.118-5.118,5.118c-2.826,0-5.118-2.291-5.118-5.118
		c0-2.826,2.291-5.118,5.118-5.118C382.4,332.355,384.691,334.646,384.691,337.473z"/>
	<path style="fill:#DD5025;" d="M435.414,285.832c0,2.826-2.291,5.118-5.118,5.118c-2.826,0-5.118-2.291-5.118-5.118
		s2.291-5.118,5.118-5.118C433.123,280.714,435.414,283.006,435.414,285.832z"/>
	<path style="fill:#DD5025;" d="M489.319,229.434c0,2.826-2.291,5.118-5.118,5.118c-2.826,0-5.118-2.291-5.118-5.118
		s2.291-5.118,5.118-5.118C487.027,224.316,489.319,226.607,489.319,229.434z"/>
	<path style="fill:#DD5025;" d="M519.456,200.434c0,2.826-2.291,5.118-5.118,5.118c-2.826,0-5.118-2.291-5.118-5.118
		s2.291-5.118,5.118-5.118C517.165,195.316,519.456,197.607,519.456,200.434z"/>
	<circle style="fill:#DD5025;" cx="404" cy="312" r="5.118"/>
	<path style="fill:#DD5025;" d="M462.06,258.025c0,2.826-2.291,5.118-5.118,5.118c-2.826,0-5.118-2.291-5.118-5.118
		c0-2.826,2.291-5.118,5.118-5.118C459.769,252.907,462.06,255.198,462.06,258.025z"/>
	<polygon style="fill:#2C323D;" points="651,172 613,172 651,134 	"/>
	<polygon style="fill:#2C323D;" points="575,250 536.333,250 575,211.333 	"/>
	<g>
		
			<linearGradient id="SVGID_00000136402641459259060980000009885658134040943747_" gradientUnits="userSpaceOnUse" x1="484.7243" y1="90.6398" x2="567.1891" y2="90.6398">
			<stop  offset="0" style="stop-color:#6A8DBD"/>
			<stop  offset="0.072" style="stop-color:#6788B7"/>
		</linearGradient>
		
			<path style="fill:none;stroke:url(#SVGID_00000136402641459259060980000009885658134040943747_);stroke-width:2.168;stroke-miterlimit:10;" d="
			M566.105,132.807c-1.496,0.16-3.009,0.251-4.547,0.251c-23.389,0-42.419-19.028-42.419-42.419
			c0-23.389,19.03-42.419,42.419-42.419c1.537,0,3.051,0.093,4.547,0.253V15.039c-1.506-0.09-3.02-0.149-4.547-0.149
			c-41.768,0-75.75,33.982-75.75,75.75c0,41.769,33.982,75.75,75.75,75.75c1.527,0,3.041-0.057,4.547-0.148V132.807z"/>
	</g>
	<g>
		
			<linearGradient id="SVGID_00000025401560883476085680000001261119534659635610_" gradientUnits="userSpaceOnUse" x1="485.8083" y1="53.6115" x2="566.1051" y2="53.6115">
			<stop  offset="0" style="stop-color:#6A8DBD"/>
			<stop  offset="0.072" style="stop-color:#6788B7"/>
		</linearGradient>
		<path style="fill:url(#SVGID_00000025401560883476085680000001261119534659635610_);" d="M519.183,92.333
			c-0.022-0.563-0.043-1.125-0.043-1.693c0-23.389,19.03-42.419,42.419-42.419c1.537,0,3.051,0.093,4.547,0.253V15.039
			c-1.506-0.09-3.02-0.149-4.547-0.149c-41.768,0-75.75,33.983-75.75,75.75c0,0.568,0.03,1.129,0.043,1.693H519.183z"/>
	</g>
	<g>
		<path style="fill:#DD5025;" d="M479.81,408.182c0,2.951-2.393,5.344-5.344,5.344c-2.951,0-5.344-2.393-5.344-5.344
			c0-2.951,2.393-5.344,5.344-5.344C477.418,402.838,479.81,405.23,479.81,408.182z"/>
		<g>
			
				<ellipse transform="matrix(0.634 -0.7733 0.7733 0.634 -142.0042 516.3232)" style="fill:none;stroke:#F3EBDE;stroke-width:1.1339;stroke-miterlimit:10;" cx="474.467" cy="408.182" rx="17.646" ry="17.646"/>
			<g>
				<circle style="fill:none;stroke:#F3EBDE;stroke-width:1.1339;stroke-miterlimit:10;" cx="428.543" cy="458.073" r="27.214"/>
				<circle style="fill:none;stroke:#DD5025;stroke-width:1.4576;stroke-miterlimit:10;" cx="428.543" cy="458.073" r="13.806"/>
				<circle style="fill:#DD5025;" cx="428.543" cy="458.073" r="5.344"/>
				<circle style="fill:none;stroke:#DD5025;stroke-width:1.4576;stroke-miterlimit:10;" cx="474.466" cy="408.182" r="27.214"/>
				<path style="fill:none;stroke:#F3EBDE;stroke-width:1.1339;stroke-miterlimit:10;" d="M518.363,367.361
					c0,2.951-2.393,5.344-5.344,5.344c-2.951,0-5.344-2.393-5.344-5.344c0-2.951,2.393-5.344,5.344-5.344
					C515.971,362.017,518.363,364.41,518.363,367.361z"/>
				<path style="fill:none;stroke:#DD5025;stroke-width:1.4576;stroke-miterlimit:10;" d="M548.17,333.344
					c0,2.951-2.393,5.344-5.344,5.344s-5.344-2.392-5.344-5.344c0-2.951,2.392-5.344,5.344-5.344S548.17,330.393,548.17,333.344z"/>
			</g>
		</g>
	</g>
	
		<ellipse transform="matrix(0.2378 -0.9713 0.9713 0.2378 16.3732 870.1989)" style="fill:#DD5025;" cx="562.667" cy="424.667" rx="9.667" ry="9.667"/>
	<circle style="fill:#DD5025;" cx="682.667" cy="293" r="9.667"/>
	
		<ellipse transform="matrix(0.9342 -0.3567 0.3567 0.9342 -101.5402 282.0811)" style="fill:#DD5025;" cx="714" cy="416.333" rx="9.667" ry="9.667"/>
	
		<ellipse transform="matrix(0.6905 -0.7234 0.7234 0.6905 -135.6608 634.3018)" style="fill:#DD5025;" cx="673.333" cy="475.667" rx="9.667" ry="9.667"/>
	<g>
		<rect x="424.333" y="110.333" style="fill:#DD5025;" width="43.389" height="7.944"/>
		
			<rect x="424.333" y="124.389" style="fill:none;stroke:#F3EBDE;stroke-width:0.9167;stroke-miterlimit:10;" width="43.389" height="7.944"/>
	</g>
	<g>
		<rect x="485.667" y="317" style="fill:#DD5025;" width="11.733" height="11.733"/>
		<rect x="498.467" y="329.267" style="fill:#F3EBDE;" width="11.733" height="11.733"/>
	</g>
	<path style="fill:#DD5025;" d="M552.445,95.333c0.824,6.76,6.573,12,13.555,12s12.731-5.24,13.555-12H552.445z"/>
	<circle style="fill:none;stroke:#DD5025;stroke-width:0.9712;stroke-miterlimit:10;" cx="566" cy="93.667" r="13.667"/>
	<g>
		<defs>
			
				<rect id="SVGID_00000156565217522381796220000005415759199896241542_" x="510.608" y="242.013" width="236.988" height="257.987"/>
		</defs>
		<clipPath id="SVGID_00000075861329368739601580000006707162215816137900_">
			<use xlink:href="#SVGID_00000156565217522381796220000005415759199896241542_"  style="overflow:visible;"/>
		</clipPath>
		<g style="clip-path:url(#SVGID_00000075861329368739601580000006707162215816137900_);">
			<path style="fill:none;stroke:#DD5025;stroke-width:2;stroke-miterlimit:10;" d="M725.04,401.822l-45.59,57.75l-60.59,76.74
				c-2.77,3.51-6.88,5.34-11.03,5.34c-3.05,0-6.11-0.98-8.69-3.02c-6.09-4.8-7.13-13.63-2.32-19.72l62.34-78.96
				c0,0,43.158-54.609,43.832-55.52c5.675-7.677-0.654-13.256-5.522-11.798c-4.303,1.288-7.31,5.466-9.837,8.615
				c-2.077,2.587-4.153,5.174-6.23,7.761c-5,6.229-10,12.458-15,18.687c-5.914,7.368-11.828,14.737-17.743,22.105
				c-0.001,0.001-51.45,64.09-51.45,64.09c-12.08,15.06-33.8,17.99-49.44,6.69c-8.04-5.8-13.4-14.77-14.7-24.6
				c-1.3-9.83,1.54-19.88,7.79-27.58l55.87-68.83l67.73-83.44c4.89-6.02,13.73-6.94,19.75-2.05c6.02,4.89,6.94,13.73,2.06,19.75
				l-69.28,85.34l-54.33,66.93c-1.92,2.37-1.92,4.9-1.75,6.19c0.17,1.3,0.83,3.74,3.3,5.53c3.51,2.54,8.39,1.88,11.11-1.5
				l53.07-66.13l43.24-53.87c5.76-7.18,14.34-11.58,23.53-12.09c9.18-0.49,18.19,2.95,24.7,9.46l2.5,2.5
				C734.49,368.322,735.67,388.362,725.04,401.822z"/>
		</g>
	</g>
	<g>
		<defs>
			
				<rect id="SVGID_00000111173363124607871270000016081241084294142622_" x="278.12" y="398.005" width="101.995" height="101.995"/>
		</defs>
		<clipPath id="SVGID_00000042735593829406235600000002615330464743370374_">
			<use xlink:href="#SVGID_00000111173363124607871270000016081241084294142622_"  style="overflow:visible;"/>
		</clipPath>
		<g style="clip-path:url(#SVGID_00000042735593829406235600000002615330464743370374_);">
			<g>
				<defs>
					<path id="SVGID_00000084500196565033023700000008479886818341616062_" d="M374.52,406.546l-94.793,94.793h94.793
						C374.52,501.339,373.699,405.725,374.52,406.546z"/>
				</defs>
				<clipPath id="SVGID_00000129926924854524262070000012905102594304200367_">
					<use xlink:href="#SVGID_00000084500196565033023700000008479886818341616062_"  style="overflow:visible;"/>
				</clipPath>
				
					<line style="clip-path:url(#SVGID_00000129926924854524262070000012905102594304200367_);fill:none;stroke:#DD5025;stroke-width:1.0917;stroke-miterlimit:10;" x1="355.965" y1="419.454" x2="355.965" y2="500.887"/>
				
					<line style="clip-path:url(#SVGID_00000129926924854524262070000012905102594304200367_);fill:none;stroke:#DD5025;stroke-width:1.0757;stroke-miterlimit:10;" x1="387.428" y1="424.294" x2="308.366" y2="424.294"/>
				
					<line style="clip-path:url(#SVGID_00000129926924854524262070000012905102594304200367_);fill:none;stroke:#DD5025;stroke-width:1.0757;stroke-miterlimit:10;" x1="385.008" y1="444.463" x2="305.946" y2="444.463"/>
				
					<line style="clip-path:url(#SVGID_00000129926924854524262070000012905102594304200367_);fill:none;stroke:#DD5025;stroke-width:1.0757;stroke-miterlimit:10;" x1="382.587" y1="464.632" x2="303.526" y2="464.632"/>
				
					<line style="clip-path:url(#SVGID_00000129926924854524262070000012905102594304200367_);fill:none;stroke:#DD5025;stroke-width:1.0757;stroke-miterlimit:10;" x1="380.167" y1="484.801" x2="296.922" y2="484.801"/>
				
					<line style="clip-path:url(#SVGID_00000129926924854524262070000012905102594304200367_);fill:none;stroke:#DD5025;stroke-width:1.0917;stroke-miterlimit:10;" x1="336.603" y1="426.102" x2="336.603" y2="501.718"/>
				
					<line style="clip-path:url(#SVGID_00000129926924854524262070000012905102594304200367_);fill:none;stroke:#DD5025;stroke-width:1.0917;stroke-miterlimit:10;" x1="318.047" y1="426.932" x2="318.047" y2="502.549"/>
				
					<line style="clip-path:url(#SVGID_00000129926924854524262070000012905102594304200367_);fill:none;stroke:#DD5025;stroke-width:1.0757;stroke-miterlimit:10;" x1="301.106" y1="427.521" x2="301.106" y2="500.935"/>
			</g>
			<path style="fill:none;stroke:#DD5025;stroke-width:1.6136;stroke-miterlimit:10;" d="M279.727,501.339l94.793-94.793v94.793
				C374.52,501.339,276.903,501.339,279.727,501.339z"/>
		</g>
	</g>
	<g>
		<defs>
			<rect id="SVGID_00000027600019313427781800000000234209774534842518_" x="388.667" y="0.333" width="123" height="163.333"/>
		</defs>
		<clipPath id="SVGID_00000144310545359851423910000010126517925365369780_">
			<use xlink:href="#SVGID_00000027600019313427781800000000234209774534842518_"  style="overflow:visible;"/>
		</clipPath>
		<g style="clip-path:url(#SVGID_00000144310545359851423910000010126517925365369780_);">
			<g>
				<defs>
					<path id="SVGID_00000073712447148622270770000002622009327208827039_" d="M392.169,114.333L507.26-0.759H392.169
						C392.169-0.759,393.165,115.329,392.169,114.333z"/>
				</defs>
				<clipPath id="SVGID_00000159459102009021617080000006055685000533323920_">
					<use xlink:href="#SVGID_00000073712447148622270770000002622009327208827039_"  style="overflow:visible;"/>
				</clipPath>
				
					<line style="clip-path:url(#SVGID_00000159459102009021617080000006055685000533323920_);fill:none;stroke:#DDDDDD;stroke-width:1.3255;stroke-miterlimit:10;" x1="414.697" y1="98.66" x2="414.697" y2="-0.211"/>
				
					<line style="clip-path:url(#SVGID_00000159459102009021617080000006055685000533323920_);fill:none;stroke:#DDDDDD;stroke-width:1.3061;stroke-miterlimit:10;" x1="376.497" y1="92.784" x2="472.488" y2="92.784"/>
				
					<line style="clip-path:url(#SVGID_00000159459102009021617080000006055685000533323920_);fill:none;stroke:#DDDDDD;stroke-width:1.3061;stroke-miterlimit:10;" x1="379.435" y1="68.296" x2="475.426" y2="68.296"/>
				
					<line style="clip-path:url(#SVGID_00000159459102009021617080000006055685000533323920_);fill:none;stroke:#DDDDDD;stroke-width:1.3061;stroke-miterlimit:10;" x1="382.374" y1="43.808" x2="478.365" y2="43.808"/>
				
					<line style="clip-path:url(#SVGID_00000159459102009021617080000006055685000533323920_);fill:none;stroke:#DDDDDD;stroke-width:1.3061;stroke-miterlimit:10;" x1="385.312" y1="19.321" x2="486.384" y2="19.321"/>
				
					<line style="clip-path:url(#SVGID_00000159459102009021617080000006055685000533323920_);fill:none;stroke:#DDDDDD;stroke-width:1.3255;stroke-miterlimit:10;" x1="438.205" y1="90.59" x2="438.205" y2="-1.219"/>
				
					<line style="clip-path:url(#SVGID_00000159459102009021617080000006055685000533323920_);fill:none;stroke:#DDDDDD;stroke-width:1.3255;stroke-miterlimit:10;" x1="460.734" y1="89.58" x2="460.734" y2="-2.228"/>
				
					<line style="clip-path:url(#SVGID_00000159459102009021617080000006055685000533323920_);fill:none;stroke:#DDDDDD;stroke-width:1.3061;stroke-miterlimit:10;" x1="481.303" y1="88.865" x2="481.303" y2="-0.269"/>
			</g>
			<path style="fill:none;stroke:#DDDDDD;stroke-width:1.9591;stroke-miterlimit:10;" d="M507.26-0.759L392.169,114.333V-0.759
				C392.169-0.759,510.689-0.759,507.26-0.759z"/>
		</g>
	</g>
	
		<circle style="fill:none;stroke:#FFFFFF;stroke-width:1.6181;stroke-linecap:round;stroke-linejoin:round;stroke-miterlimit:10;" cx="615" cy="49" r="5"/>
</g>
</svg>
